<svg xmlns="http://www.w3.org/2000/svg" version="1.1" width="30px" height="16px" viewBox="0 0 304 166" style="shape-rendering:geometricPrecision; text-rendering:geometricPrecision; image-rendering:optimizeQuality; fill-rule:evenodd; clip-rule:evenodd" xmlns:xlink="http://www.w3.org/1999/xlink">
  <g>
    <path style="opacity:1" fill="#fefefe" d="M -0.5,-0.5 C 100.833,-0.5 202.167,-0.5 303.5,-0.5C 303.5,54.8333 303.5,110.167 303.5,165.5C 202.167,165.5 100.833,165.5 -0.5,165.5C -0.5,110.167 -0.5,54.8333 -0.5,-0.5 Z"/>
  </g>
  <g>
    <path style="opacity:1" fill="#9a9ab1" d="M 67.5,46.5 C 67.5,46.8333 67.5,47.1667 67.5,47.5C 62.6367,47.1805 57.97,47.5139 53.5,48.5C 52.9569,48.44 52.6236,48.1067 52.5,47.5C 57.456,46.5059 62.456,46.1725 67.5,46.5 Z"/>
  </g>

<g><path style="opacity:1" fill="#8e8da7" d="M 180.5,47.5 C 193.323,46.5045 206.323,46.1712 219.5,46.5C 219.737,47.791 219.404,48.791 218.5,49.5C 206.211,47.5197 193.544,46.853 180.5,47.5 Z"/></g>
<g><path style="opacity:1" fill="#deb244" d="M 67.5,46.5 C 69.4147,46.2155 71.0813,46.5489 72.5,47.5C 70.8343,56.1598 69.1676,64.8265 67.5,73.5C 65.4309,77.0437 65.0976,80.7104 66.5,84.5C 66.9926,86.8056 67.3259,89.139 67.5,91.5C 66.1667,91.5 64.8333,91.5 63.5,91.5C 63.0479,95.5457 62.3813,99.5457 61.5,103.5C 59.2188,103.923 57.5521,103.256 56.5,101.5C 56.5172,99.4352 56.8505,97.4352 57.5,95.5C 58.8434,93.3166 58.51,91.3166 56.5,89.5C 57.4617,86.2432 58.9617,83.2432 61,80.5C 63.1229,69.4625 65.2896,58.4625 67.5,47.5C 67.5,47.1667 67.5,46.8333 67.5,46.5 Z"/></g>
<g><path style="opacity:1" fill="#2b2b6b" d="M 53.5,48.5 C 57.97,47.5139 62.6367,47.1805 67.5,47.5C 65.2896,58.4625 63.1229,69.4625 61,80.5C 58.9617,83.2432 57.4617,86.2432 56.5,89.5C 55.9569,89.56 55.6236,89.8933 55.5,90.5C 57.0049,91.8415 57.6715,93.5082 57.5,95.5C 56.8505,97.4352 56.5172,99.4352 56.5,101.5C 54.9323,102.869 53.099,103.869 51,104.5C 49.6667,107.167 48.3333,109.833 47,112.5C 46.235,114.066 46.4017,115.399 47.5,116.5C 40.0182,117.492 32.3516,117.825 24.5,117.5C 23.4265,116.749 23.2599,115.749 24,114.5C 33.8077,94.2176 44.1411,74.2176 55,54.5C 55.9411,52.0106 55.4411,50.0106 53.5,48.5 Z"/></g>
<g><path style="opacity:1" fill="#2b2b6c" d="M 72.5,47.5 C 77.1785,47.3342 81.8452,47.5008 86.5,48C 87,48.5 87.5,49 88,49.5C 89.6906,71.1911 91.6906,92.8578 94,114.5C 94.2784,115.416 94.7784,116.082 95.5,116.5C 86.6822,117.493 77.6822,117.827 68.5,117.5C 67.8826,117.389 67.3826,117.056 67,116.5C 66.501,112.179 66.3343,107.846 66.5,103.5C 64.8333,103.5 63.1667,103.5 61.5,103.5C 62.3813,99.5457 63.0479,95.5457 63.5,91.5C 64.8333,91.5 66.1667,91.5 67.5,91.5C 67.3259,89.139 66.9926,86.8056 66.5,84.5C 66.5524,80.8019 66.8857,77.1352 67.5,73.5C 69.1676,64.8265 70.8343,56.1598 72.5,47.5 Z"/></g>
<g><path style="opacity:1" fill="#2b2c6c" d="M 180.5,47.5 C 193.544,46.853 206.211,47.5197 218.5,49.5C 218.157,53.7207 216.823,57.5541 214.5,61C 208.5,61.3333 202.5,61.6667 196.5,62C 194.714,62.7845 193.214,63.9512 192,65.5C 188.628,77.0278 186.294,88.6945 185,100.5C 185.5,101 186,101.5 186.5,102C 194.216,102.8 201.883,102.633 209.5,101.5C 209.833,102.167 210.167,102.833 210.5,103.5C 209.395,107.533 208.228,111.533 207,115.5C 206.097,116.701 204.931,117.535 203.5,118C 191.5,118.667 179.5,118.667 167.5,118C 163.793,117.064 160.626,115.231 158,112.5C 156.483,106.92 156.149,101.253 157,95.5C 159.24,84.0591 161.906,72.7257 165,61.5C 167.847,54.1481 173.014,49.4814 180.5,47.5 Z"/></g>
<g><path style="opacity:1" fill="#2d2d6d" d="M 110.5,63.5 C 118.656,62.3434 126.99,62.1768 135.5,63C 137.291,65.1062 137.958,67.6062 137.5,70.5C 138.675,70.719 139.675,70.3857 140.5,69.5C 143.773,62.943 149.106,60.6096 156.5,62.5C 156.008,67.6408 154.675,72.4741 152.5,77C 147.949,78.2148 143.282,78.8814 138.5,79C 136.667,79.5 135.5,80.6667 135,82.5C 131.387,93.6038 129.387,104.937 129,116.5C 129.5,117 130,117.5 130.5,118C 121.5,118.667 112.5,118.667 103.5,118C 102.941,117.275 102.608,116.442 102.5,115.5C 106.329,99.6898 109.995,83.8564 113.5,68C 113.478,65.8171 112.478,64.3171 110.5,63.5 Z"/></g>
<g><path style="opacity:1" fill="#2c2d6d" d="M 271.5,116.5 C 263.684,117.492 255.684,117.826 247.5,117.5C 246.861,116.903 246.528,116.07 246.5,115C 249.807,102.326 251.973,89.4926 253,76.5C 246.581,75.6871 240.081,75.1871 233.5,75C 232.941,74.2753 232.608,73.4419 232.5,72.5C 233.488,69.2184 234.154,65.8851 234.5,62.5C 247.504,62.3334 260.504,62.5001 273.5,63C 275.609,64.1411 277.442,65.6411 279,67.5C 279.551,72.5445 279.218,77.5445 278,82.5C 274.397,93.8187 272.231,105.152 271.5,116.5 Z"/></g>
<g><path style="opacity:1" fill="#6b5a53" d="M 67.5,73.5 C 66.8857,77.1352 66.5524,80.8019 66.5,84.5C 65.0976,80.7104 65.4309,77.0437 67.5,73.5 Z"/></g>
<g><path style="opacity:1" fill="#2d2d6d" d="M 230.5,82.5 C 236.5,82.5 242.5,82.5 248.5,82.5C 247.841,85.4552 247.508,88.4552 247.5,91.5C 243.547,92.0149 241.381,94.3483 241,98.5C 240.333,100.5 240.333,102.5 241,104.5C 242.556,105.52 243.722,106.853 244.5,108.5C 243.347,112.99 240.68,116.157 236.5,118C 231.5,118.667 226.5,118.667 221.5,118C 218.898,117.065 217.398,115.232 217,112.5C 215.724,103.88 217.391,95.8799 222,88.5C 224.671,86.0976 227.505,84.0976 230.5,82.5 Z"/></g>
<g><path style="opacity:1" fill="#9b8158" d="M 56.5,89.5 C 58.51,91.3166 58.8434,93.3166 57.5,95.5C 57.6715,93.5082 57.0049,91.8415 55.5,90.5C 55.6236,89.8933 55.9569,89.56 56.5,89.5 Z"/></g>
<g><path style="opacity:1" fill="#5a5a81" d="M 47.5,116.5 C 48.2891,116.783 48.9558,117.283 49.5,118C 40.9896,118.823 32.6563,118.657 24.5,117.5C 32.3516,117.825 40.0182,117.492 47.5,116.5 Z"/></g>
<g><path style="opacity:1" fill="#58597f" d="M 95.5,116.5 C 96.2891,116.783 96.9558,117.283 97.5,118C 87.6578,118.825 77.9911,118.658 68.5,117.5C 77.6822,117.827 86.6822,117.493 95.5,116.5 Z"/></g>
<g><path style="opacity:1" fill="#5a5b81" d="M 271.5,116.5 C 272.289,116.783 272.956,117.283 273.5,118C 264.657,118.824 255.99,118.657 247.5,117.5C 255.684,117.826 263.684,117.492 271.5,116.5 Z"/></g>
</svg>
