<svg width="15" height="14" viewBox="0 0 15 14" fill="none" xmlns="http://www.w3.org/2000/svg">
<g id="mingcute:down-line" clip-path="url(#clip0_1650_3438)">
<g id="Group">
<path id="Vector" fill-rule="evenodd" clip-rule="evenodd" d="M8.36613 9.16245C8.25597 9.27181 8.10659 9.33325 7.95082 9.33325C7.79506 9.33325 7.64568 9.27181 7.53552 9.16245L4.21253 5.86254C4.15643 5.80873 4.11168 5.74436 4.08089 5.67319C4.05011 5.60202 4.0339 5.52548 4.03323 5.44802C4.03255 5.37057 4.04741 5.29375 4.07695 5.22206C4.10648 5.15037 4.1501 5.08524 4.20525 5.03047C4.26041 4.9757 4.32599 4.93239 4.39818 4.90306C4.47037 4.87373 4.54772 4.85897 4.62572 4.85964C4.70372 4.86031 4.7808 4.87641 4.85246 4.90698C4.92413 4.93755 4.98895 4.98199 5.04313 5.0377L7.95082 7.9252L10.8585 5.0377C10.9693 4.93144 11.1177 4.87265 11.2717 4.87398C11.4257 4.87531 11.5731 4.93665 11.682 5.04481C11.7909 5.15296 11.8527 5.29927 11.854 5.45222C11.8553 5.60517 11.7961 5.75252 11.6891 5.86254L8.36613 9.16245Z" fill="white"/>
</g>
</g>
<defs>
<clipPath id="clip0_1650_3438">
<rect width="14.0979" height="14" fill="white" transform="translate(0.902344)"/>
</clipPath>
</defs>
</svg>
