<svg width="31" height="30" viewBox="0 0 31 30" fill="none" xmlns="http://www.w3.org/2000/svg">
<g id="Group">
<path id="Vector" fill-rule="evenodd" clip-rule="evenodd" d="M16.6403 19.6325C16.4059 19.8668 16.088 19.9985 15.7565 19.9985C15.4251 19.9985 15.1072 19.8668 14.8728 19.6325L7.80153 12.5612C7.68214 12.4459 7.58692 12.308 7.52141 12.1555C7.45589 12.003 7.42141 11.8389 7.41997 11.673C7.41853 11.507 7.45015 11.3424 7.51301 11.1888C7.57586 11.0352 7.66867 10.8956 7.78604 10.7782C7.9034 10.6609 8.04297 10.568 8.19659 10.5052C8.35021 10.4423 8.51481 10.4107 8.68078 10.4122C8.84676 10.4136 9.01078 10.4481 9.16329 10.5136C9.31579 10.5791 9.45372 10.6743 9.56903 10.7937L15.7565 16.9812L21.944 10.7937C22.1798 10.566 22.4955 10.44 22.8233 10.4429C23.151 10.4457 23.4645 10.5772 23.6963 10.8089C23.9281 11.0407 24.0595 11.3542 24.0624 11.682C24.0652 12.0097 23.9392 12.3255 23.7115 12.5612L16.6403 19.6325Z" fill="#000"/>
</g>
</svg>
