<svg width="30" height="30" viewBox="0 0 30 30" fill="none" xmlns="http://www.w3.org/2000/svg">
<g id="Group">
<path id="Vector" fill-rule="evenodd" clip-rule="evenodd" d="M14.1161 10.3675C14.3505 10.1332 14.6684 10.0015 14.9998 10.0015C15.3313 10.0015 15.6492 10.1332 15.8836 10.3675L22.9548 17.4388C23.0742 17.5541 23.1694 17.692 23.2349 17.8445C23.3005 17.997 23.3349 18.1611 23.3364 18.327C23.3378 18.493 23.3062 18.6576 23.2433 18.8112C23.1805 18.9648 23.0877 19.1044 22.9703 19.2218C22.8529 19.3391 22.7134 19.432 22.5598 19.4948C22.4061 19.5577 22.2415 19.5893 22.0756 19.5878C21.9096 19.5864 21.7456 19.5519 21.5931 19.4864C21.4406 19.4209 21.3026 19.3257 21.1873 19.2063L14.9998 13.0188L8.81231 19.2063C8.57656 19.434 8.26081 19.56 7.93307 19.5571C7.60532 19.5543 7.2918 19.4228 7.06004 19.1911C6.82828 18.9593 6.69682 18.6458 6.69397 18.318C6.69113 17.9903 6.81712 17.6745 7.04482 17.4388L14.1161 10.3675Z" fill="#000000"/>
</g>
</svg>
