<svg width="24" height="28" viewBox="0 0 24 28" fill="none" xmlns="http://www.w3.org/2000/svg">
<path fill-rule="evenodd" clip-rule="evenodd" d="M12.0397 0.666082C5.89433 0.645205 0.874764 5.53448 0.674139 11.6545L0.667969 12.0344C0.770114 15.0341 1.79073 17.8936 3.58835 20.2495L4.01053 20.8005C5.72637 22.9821 7.76545 24.8971 10.055 26.4755L10.6063 26.8466L10.6867 26.9097C11.4714 27.4736 12.531 27.4736 13.3157 26.9097L13.3827 26.8547C15.1994 25.6765 16.8746 24.2922 18.3753 22.7291C21.4261 19.4996 23.2649 15.881 23.3343 12.206L23.3345 12.0695C23.3553 5.90858 18.4811 0.873576 12.3799 0.67227L12.0397 0.666082ZM12.0328 2.68932C17.0709 2.70654 21.1613 6.73192 21.3132 11.7448L21.3175 12.1868C21.2591 15.2679 19.6459 18.4426 16.9168 21.3316C15.5252 22.781 13.965 24.0695 12.2727 25.1653L12.1599 25.2501C12.0688 25.3292 11.9336 25.3292 11.8425 25.2501L11.7329 25.1674C9.21193 23.5215 6.99939 21.4434 5.19645 19.0283C3.74421 17.125 2.88364 14.8492 2.71042 12.4752L2.68497 11.9992C2.70209 6.94899 6.71506 2.84601 11.7126 2.69365L12.0328 2.68932ZM12.0012 7.86774C9.61668 7.86774 7.68364 9.80674 7.68364 12.1986C7.68364 14.5905 9.61668 16.5295 12.0012 16.5295C14.3857 16.5295 16.3188 14.5905 16.3188 12.1986C16.3188 9.80674 14.3857 7.86774 12.0012 7.86774ZM12.0012 9.89097C13.2718 9.89097 14.3018 10.9241 14.3018 12.1986C14.3018 13.4731 13.2718 14.5063 12.0012 14.5063C10.7306 14.5063 9.70064 13.4731 9.70064 12.1986C9.70064 10.9241 10.7306 9.89097 12.0012 9.89097Z" fill="#023B70"/>
</svg>
