<svg width="32" height="32" viewBox="0 0 32 32" fill="none" xmlns="http://www.w3.org/2000/svg">
<g clip-path="url(#clip0_1015_28640)">
<rect width="32" height="32" rx="4" fill="#0055A3" fill-opacity="0.05"/>
<path d="M27.2486 14.935C27.1833 15.0869 27.0706 15.2136 26.9273 15.2961C26.7839 15.3786 26.6178 15.4124 26.4536 15.3925C25.8861 15.375 25.9136 15.3925 25.8086 15.955C25.2886 18.73 23.9586 21 21.5111 22.5C20.6337 23.0414 19.6194 23.3199 18.5886 23.3025C16.8386 23.2875 15.0736 23.3025 13.3186 23.3025C12.0027 23.2911 10.731 22.8257 9.71859 21.985C7.70109 20.38 6.56859 18.265 6.16359 15.75C6.15862 15.6918 6.15862 15.6332 6.16359 15.575C6.16359 15.4475 6.09609 15.3925 5.96859 15.395C5.78359 15.395 5.60109 15.395 5.41859 15.395C5.24024 15.395 5.06918 15.3241 4.94306 15.198C4.81695 15.0719 4.74609 14.9009 4.74609 14.7225C4.74609 14.5441 4.81695 14.3731 4.94306 14.247C5.06918 14.1209 5.24024 14.05 5.41859 14.05C6.46609 14.05 7.51109 14.05 8.55859 14.05H14.9986C15.3261 14.05 15.3261 14.05 15.3261 13.7125C15.3261 13.0025 15.3261 12.2925 15.3261 11.5825C15.3261 11.4125 15.2736 11.3475 15.0986 11.355C14.8161 11.355 14.5286 11.355 14.2436 11.355C14.0761 11.355 14.0236 11.415 14.0336 11.575C14.0436 11.735 14.0336 11.8825 14.0336 12.035C14.0316 12.121 14.0128 12.2058 13.978 12.2845C13.9433 12.3633 13.8934 12.4344 13.8312 12.4938C13.769 12.5532 13.6957 12.5998 13.6154 12.6309C13.5352 12.662 13.4496 12.677 13.3636 12.675C13.2772 12.6787 13.191 12.665 13.1101 12.6347C13.0291 12.6044 12.955 12.5582 12.8923 12.4987C12.8296 12.4392 12.7794 12.3678 12.7449 12.2885C12.7103 12.2093 12.692 12.1239 12.6911 12.0375C12.6911 11.1375 12.6911 10.2375 12.6911 9.3375C12.6911 9.15914 12.7619 8.98809 12.8881 8.86197C13.0142 8.73585 13.1852 8.665 13.3636 8.665C13.542 8.665 13.713 8.73585 13.8391 8.86197C13.9652 8.98809 14.0361 9.15914 14.0361 9.3375C14.0361 9.505 14.0361 9.6725 14.0361 9.8375C14.0361 9.9475 14.0811 9.9975 14.1936 9.995C14.5161 9.995 14.8386 9.995 15.1611 9.995C15.3261 9.995 15.3261 9.8925 15.3261 9.775C15.3261 9.025 15.3261 8.275 15.3261 7.525C15.2928 6.99468 15.4213 6.46675 15.6944 6.01099C15.9676 5.55523 16.3727 5.19311 16.8561 4.9725C17.0652 4.88453 17.2798 4.81021 17.4986 4.75H18.4661L18.7161 4.8275C19.7361 5.1075 20.5836 6.0925 20.6236 7.1075C20.6536 7.875 20.6236 8.645 20.6236 9.4125C20.6167 9.57535 20.5484 9.72956 20.4325 9.84412C20.3165 9.95868 20.1615 10.0251 19.9986 10.03C19.9035 10.0392 19.8075 10.0277 19.7172 9.99624C19.627 9.96482 19.5446 9.91425 19.4757 9.84798C19.4068 9.78172 19.3531 9.70135 19.3182 9.61237C19.2833 9.52339 19.2681 9.42792 19.2736 9.3325C19.2561 8.6175 19.3236 7.8975 19.2361 7.185C19.21 6.95528 19.1173 6.7382 18.9694 6.56052C18.8215 6.38283 18.6248 6.2523 18.4036 6.185C18.1874 6.10036 17.9515 6.07892 17.7236 6.12318C17.4956 6.16744 17.2849 6.27558 17.1161 6.435C16.9604 6.58052 16.8396 6.75927 16.7626 6.95793C16.6855 7.1566 16.6543 7.37008 16.6711 7.5825C16.6711 9.6375 16.6711 11.6925 16.6711 13.7475C16.6711 14.055 16.6711 14.055 16.9861 14.055C20.1411 14.055 23.2936 14.055 26.4461 14.055C26.6097 14.0348 26.7755 14.0671 26.9197 14.147C27.0639 14.227 27.179 14.3505 27.2486 14.5V14.935Z" fill="#023B70"/>
<path d="M16.0146 24.5799C16.6021 24.5799 17.1871 24.5799 17.7646 24.5799C17.9371 24.5799 17.9946 24.6349 17.9946 24.8074C17.9946 25.3074 17.9946 25.8074 17.7446 26.2549C17.5253 26.6306 17.1904 26.9254 16.7899 27.0952C16.3894 27.2651 15.9447 27.3009 15.5221 27.1974C15.0969 27.0907 14.7191 26.8461 14.4477 26.5019C14.1763 26.1577 14.0266 25.7332 14.0221 25.2949C14.0296 25.1491 14.0296 25.0031 14.0221 24.8574C14.0046 24.6499 14.0746 24.5724 14.2921 24.5774C14.8596 24.5899 15.4371 24.5799 16.0146 24.5799Z" fill="#023B70"/>
</g>
<defs>
<clipPath id="clip0_1015_28640">
<rect width="32" height="32" rx="4" fill="white"/>
</clipPath>
</defs>
</svg>
