<svg width="32" height="32" viewBox="0 0 32 32" fill="none" xmlns="http://www.w3.org/2000/svg">
<g clip-path="url(#clip0_1015_28632)">
<rect width="32" height="32" rx="4" fill="#0055A3" fill-opacity="0.05"/>
<path d="M15.386 27.2504C14.8453 27.1577 14.3192 26.9947 13.8209 26.7654C13.0636 26.3911 12.414 25.8301 11.9334 25.1354C11.8984 25.0854 11.8259 25.0354 11.8684 24.9654C11.9109 24.8954 11.9859 24.9204 12.0509 24.9204H19.801C19.8585 24.9204 19.916 24.9204 19.976 24.9204C20.036 24.9204 20.101 24.9054 20.136 24.9629C20.171 25.0204 20.1135 25.0729 20.0835 25.1179C19.6155 25.7974 18.9857 26.3499 18.251 26.7254C17.7319 26.9792 17.1786 27.1561 16.6085 27.2504H15.386Z" fill="#023B70"/>
<path d="M15.9982 23.9751H7.91569C7.62569 23.9751 7.61819 23.9751 7.64069 23.6951C7.72764 22.5825 8.04792 21.5007 8.58069 20.5201C9.43026 18.9144 10.7801 17.6295 12.4257 16.8601C12.9976 16.5774 13.6046 16.3722 14.2307 16.2501C14.4332 16.2151 14.5057 16.1276 14.5007 15.9151C14.4857 15.3526 14.5007 14.7901 14.5007 14.2251C14.4841 13.9303 14.5532 13.637 14.6996 13.3806C14.846 13.1242 15.0634 12.9157 15.3257 12.7801C15.4682 12.7051 15.4657 12.5951 15.4657 12.4676V7.33508C15.4657 6.68508 15.4657 6.03258 15.4657 5.38258C15.4657 4.97758 15.6782 4.74508 16.0107 4.75008C16.1218 4.74918 16.23 4.78532 16.3183 4.85277C16.4066 4.92022 16.4699 5.01515 16.4982 5.12258C16.5303 5.25761 16.5437 5.3964 16.5382 5.53508C16.5382 7.83174 16.5382 10.1301 16.5382 12.4301C16.5283 12.5105 16.5431 12.5921 16.5806 12.664C16.6181 12.7359 16.6765 12.7947 16.7482 12.8326C16.9877 12.9704 17.1846 13.1718 17.3169 13.4144C17.4493 13.6571 17.512 13.9315 17.4982 14.2076C17.4982 14.7876 17.4982 15.3651 17.4982 15.9426C17.4922 15.9795 17.494 16.0173 17.5036 16.0535C17.5133 16.0897 17.5305 16.1234 17.5541 16.1525C17.5777 16.1816 17.6072 16.2053 17.6407 16.2221C17.6741 16.2389 17.7108 16.2484 17.7482 16.2501C18.953 16.4988 20.0873 17.0129 21.0685 17.755C22.0497 18.4971 22.8533 19.4485 23.4207 20.5401C23.9601 21.5306 24.2815 22.6251 24.3632 23.7501C24.3782 23.9626 24.3007 24.0001 24.1132 24.0001C23.1407 24.0001 22.1657 24.0001 21.1932 24.0001L15.9982 23.9751Z" fill="#023B70"/>
</g>
<defs>
<clipPath id="clip0_1015_28632">
<rect width="32" height="32" rx="4" fill="white"/>
</clipPath>
</defs>
</svg>
