<svg width="16" height="16" viewBox="0 0 16 16" fill="none" xmlns="http://www.w3.org/2000/svg">
<path fill-rule="evenodd" clip-rule="evenodd" d="M15.0708 15.0708C15.4613 14.6802 15.4613 14.0471 15.0708 13.6566L9.41395 7.99974L15.0708 2.3429C15.4613 1.95237 15.4613 1.31921 15.0708 0.928683C14.6803 0.538158 14.0471 0.538158 13.6566 0.928683L7.99974 6.58553L2.34285 0.928635C1.95232 0.538111 1.31916 0.538111 0.928635 0.928635C0.538111 1.31916 0.538111 1.95232 0.928635 2.34285L6.58553 7.99974L0.928663 13.6566C0.538139 14.0471 0.538139 14.6803 0.928663 15.0708C1.31919 15.4613 1.95235 15.4613 2.34288 15.0708L7.99974 9.41395L13.6566 15.0708C14.0471 15.4613 14.6802 15.4613 15.0708 15.0708Z" fill="#0E0E0E" fill-opacity="0.6"/>
</svg>
