<svg width="32" height="32" viewBox="0 0 32 32" fill="none" xmlns="http://www.w3.org/2000/svg">
<rect width="32" height="32" rx="4" fill="#C90C0F" fill-opacity="0.05"/>
<path d="M13.7212 6.28327C14.9227 5.0763 16.8454 5.02316 18.0804 6.10064L18.2749 6.28199L19.0416 7.04869C19.3049 7.31081 19.6504 7.47241 20.0178 7.50872L20.1765 7.51654H21.2731C22.9839 7.51654 24.3828 8.85438 24.4806 10.5407L24.486 10.7295V11.825C24.486 12.1982 24.6147 12.5569 24.8468 12.8421L24.9525 12.9597L25.7193 13.7264C26.9263 14.928 26.9803 16.8495 25.8745 18.1157L25.7302 18.2705L24.9532 19.0475C24.6919 19.3094 24.5302 19.6551 24.4939 20.0222L24.486 20.1806V21.2783C24.486 22.989 23.1483 24.3871 21.4618 24.4847L21.2731 24.4902H20.1765C19.8047 24.4902 19.4455 24.6194 19.1601 24.8521L19.0425 24.9582L18.2768 25.7228C17.0765 26.9313 15.1537 26.9849 13.8869 25.8787L13.7225 25.7247L12.9575 24.9598C12.6926 24.6967 12.3465 24.5345 11.98 24.498L11.8219 24.4902H10.7243C9.01419 24.4902 7.61556 23.153 7.51784 21.467L7.51239 21.2783V20.1806C7.51239 19.8094 7.383 19.4499 7.15036 19.1651L7.04442 19.0477L6.27944 18.2817C5.0713 17.0804 5.01771 15.1575 6.12392 13.892L6.26824 13.7373L7.04281 12.9617C7.30623 12.6964 7.46819 12.3509 7.50456 11.9836L7.51239 11.825V10.7295L7.51784 10.5408C7.61195 8.91704 8.91246 7.61613 10.5356 7.52199L10.7243 7.51654H11.8219C12.1937 7.51654 12.5529 7.38759 12.8378 7.15592L12.9551 7.05042L13.7212 6.28327Z" fill="#C90C0F"/>
<path d="M18.7375 19.5474C18.5242 19.5474 18.3215 19.4621 18.1722 19.3127C18.0975 19.2381 18.0442 19.1421 18.0015 19.0461C17.9588 18.9501 17.9375 18.8551 17.9375 18.7474C17.9375 18.6407 17.9588 18.534 18.0015 18.438C18.0442 18.342 18.0975 18.2567 18.1722 18.182C18.4709 17.8833 19.0042 17.8833 19.3029 18.182C19.3776 18.2567 19.4416 18.342 19.4842 18.438C19.5162 18.534 19.5376 18.6407 19.5376 18.7474C19.5376 18.8551 19.5162 18.9501 19.4842 19.0461C19.4416 19.1421 19.3776 19.2381 19.3029 19.3127C19.1536 19.4621 18.9509 19.5474 18.7375 19.5474Z" fill="white"/>
<path d="M13.2532 14.0648C13.1465 14.0648 13.0505 14.0424 12.9545 13.9998C12.8585 13.9571 12.7625 13.9048 12.6878 13.8301C12.6131 13.7448 12.5598 13.6595 12.5171 13.5635C12.4745 13.4664 12.4531 13.3715 12.4531 13.2648C12.4531 13.157 12.4745 13.0514 12.5171 12.9554C12.5598 12.8594 12.6131 12.7634 12.6878 12.6994C12.9972 12.3997 13.5198 12.3997 13.8185 12.6994C13.9679 12.8477 14.0532 13.0514 14.0532 13.2648C14.0532 13.3715 14.0425 13.4664 13.9999 13.5635C13.9572 13.6595 13.8932 13.7448 13.8185 13.8301C13.7439 13.9048 13.6585 13.9571 13.5625 13.9998C13.4665 14.0424 13.3598 14.0648 13.2532 14.0648Z" fill="white"/>
<path d="M18.1743 12.6962C18.4867 12.3838 18.9933 12.3838 19.3057 12.6962C19.5898 12.9803 19.6156 13.4247 19.3832 13.7379L19.3057 13.8277L13.8228 19.3106C13.5104 19.623 13.0038 19.623 12.6914 19.3106C12.4073 19.0266 12.3815 18.5821 12.6139 18.2689L12.6914 18.1792L18.1743 12.6962Z" fill="white"/>
</svg>
