<svg width="32" height="32" viewBox="0 0 32 32" fill="none" xmlns="http://www.w3.org/2000/svg">
<g clip-path="url(#clip0_1015_28644)">
<rect width="32" height="32" rx="4" fill="#0055A3" fill-opacity="0.05"/>
<path d="M7.15875 14.8025V5.7C7.15875 5.04 7.44625 4.75 8.09875 4.75H23.8937C24.5537 4.75 24.8437 5.0375 24.8437 5.69V23.94C24.8437 24.6 24.5562 24.89 23.9037 24.8925C22.6937 24.8925 21.4812 24.8925 20.2687 24.8925C20.0312 24.8925 19.9662 24.9675 19.9762 25.1925C19.9912 25.6025 19.9762 26.0125 19.9762 26.4225C19.9857 26.5506 19.9635 26.6791 19.9116 26.7967C19.8598 26.9142 19.7799 27.0173 19.6789 27.0968C19.578 27.1762 19.4591 27.2297 19.3326 27.2525C19.2062 27.2753 19.0761 27.2667 18.9537 27.2275L14.9112 26.385L8.00125 24.9325C7.36125 24.8 7.15625 24.5525 7.15625 23.9025L7.15875 14.8025ZM16.7362 6.39V6.4075C17.5137 6.5575 18.2887 6.7175 19.0687 6.855C19.6437 6.955 19.9962 7.1775 19.9937 7.9525C19.9787 12.925 19.9937 17.895 19.9937 22.8675C19.9937 23.255 19.9937 23.255 20.3912 23.255C21.2262 23.255 22.0612 23.255 22.8912 23.255C23.1412 23.255 23.2162 23.1925 23.2162 22.935C23.2162 17.52 23.2162 12.1033 23.2162 6.685C23.2162 6.435 23.1512 6.3725 22.9062 6.375C20.8462 6.3925 18.7912 6.39 16.7362 6.39ZM15.2512 15.9775V17.5825C15.2453 17.7126 15.2753 17.8418 15.3379 17.956C15.4006 18.0702 15.4934 18.165 15.6062 18.23C16.1537 18.5575 16.7787 18.1825 16.7862 17.505C16.7862 16.505 16.7862 15.4825 16.7862 14.4725C16.7932 14.366 16.7779 14.2592 16.7414 14.1589C16.7049 14.0586 16.6479 13.967 16.5741 13.8898C16.5003 13.8127 16.4112 13.7518 16.3126 13.711C16.214 13.6701 16.108 13.6502 16.0012 13.6525C15.5462 13.6525 15.2512 13.965 15.2512 14.475C15.2512 14.985 15.2512 15.4775 15.2512 15.9775Z" fill="#023B70"/>
</g>
<defs>
<clipPath id="clip0_1015_28644">
<rect width="32" height="32" rx="4" fill="white"/>
</clipPath>
</defs>
</svg>
