<svg width="32" height="32" viewBox="0 0 32 32" fill="none" xmlns="http://www.w3.org/2000/svg">
<g clip-path="url(#clip0_1015_28638)">
<rect width="32" height="32" rx="4" fill="#0055A3" fill-opacity="0.05"/>
<path d="M23.5017 27.2499C23.5017 27.1324 23.5017 27.0174 23.5017 26.8999C23.5017 21.5599 23.5017 16.2199 23.5017 10.8799C23.5186 10.1816 23.3523 9.49112 23.0194 8.87707C22.6865 8.26302 22.1986 7.74685 21.6042 7.37992C21.0197 6.99012 20.3464 6.75402 19.6465 6.69346C18.9466 6.6329 18.2427 6.74984 17.5999 7.03345C16.9572 7.31707 16.3963 7.7582 15.9693 8.31605C15.5422 8.87389 15.2628 9.53042 15.1567 10.2249C15.1317 10.3999 15.1792 10.4424 15.3467 10.4749C17.7901 10.9999 19.4567 12.4316 20.3467 14.7699C20.4642 15.0824 20.4517 15.0974 20.1142 15.0974H8.16173C7.82423 15.0974 7.81173 15.0824 7.93423 14.7649C8.83423 12.4216 10.5184 10.9899 12.9867 10.4699C13.0183 10.469 13.0493 10.4617 13.0779 10.4485C13.1066 10.4353 13.1323 10.4165 13.1535 10.3932C13.1748 10.3699 13.1911 10.3425 13.2015 10.3127C13.2119 10.283 13.2163 10.2514 13.2142 10.2199C13.367 8.76853 14.0339 7.41968 15.0946 6.41723C16.1552 5.41479 17.5395 4.82491 18.9972 4.75424C20.4549 4.68358 21.8898 5.13679 23.0424 6.03194C24.195 6.9271 24.9893 8.20511 25.2817 9.63492C25.3217 9.81242 25.3467 9.99241 25.3792 10.1724C25.3792 15.7974 25.3792 21.4232 25.3792 27.0499C25.3792 27.2149 25.3417 27.2549 25.1767 27.2524C24.6192 27.2499 24.0567 27.2499 23.5017 27.2499Z" fill="#023B70"/>
<path d="M14.1411 17.9073H6.94609C6.62109 17.9073 6.62109 17.9073 6.62109 17.5823C6.62109 17.1423 6.62109 16.7048 6.62109 16.2648C6.62109 16.0573 6.67859 15.9873 6.89359 15.9873C8.18109 15.9873 9.46609 15.9873 10.7536 15.9873H21.3211C21.6586 15.9873 21.6586 15.9873 21.6586 16.3223V17.5723C21.6586 17.9023 21.6586 17.9023 21.3361 17.9023H14.1411V17.9073Z" fill="#023B70"/>
<path d="M14.1344 20.7174C13.8799 20.7122 13.6373 20.6085 13.4577 20.428C13.2782 20.2475 13.1757 20.0044 13.1719 19.7499C13.186 19.5015 13.295 19.268 13.4765 19.0977C13.6579 18.9274 13.8978 18.8334 14.1466 18.835C14.3954 18.8366 14.634 18.9337 14.8132 19.1063C14.9924 19.2789 15.0985 19.5138 15.1094 19.7624C15.1016 20.0167 14.9958 20.2581 14.8141 20.4361C14.6323 20.6141 14.3888 20.7149 14.1344 20.7174Z" fill="#023B70"/>
<path d="M14.1444 21.6126C14.2707 21.6109 14.3961 21.6344 14.5133 21.6817C14.6305 21.729 14.7371 21.7991 14.8269 21.888C14.9167 21.9769 14.9879 22.0827 15.0364 22.1994C15.0849 22.3161 15.1097 22.4412 15.1094 22.5676C15.0968 22.816 14.9892 23.0501 14.8089 23.2214C14.6286 23.3928 14.3894 23.4883 14.1406 23.4883C13.8919 23.4883 13.6527 23.3928 13.4724 23.2214C13.2921 23.0501 13.1845 22.816 13.1719 22.5676C13.1712 22.4405 13.196 22.3145 13.2448 22.1972C13.2937 22.0799 13.3656 21.9735 13.4563 21.8845C13.5469 21.7954 13.6546 21.7255 13.7728 21.6788C13.891 21.6321 14.0173 21.6096 14.1444 21.6126Z" fill="#023B70"/>
<path d="M14.1494 24.4202C14.2758 24.4195 14.4012 24.444 14.5181 24.4921C14.6351 24.5403 14.7413 24.6112 14.8306 24.7008C14.9199 24.7903 14.9905 24.8967 15.0384 25.0138C15.0862 25.1308 15.1104 25.2562 15.1094 25.3827C15.0944 25.6312 14.9846 25.8644 14.8025 26.0341C14.6204 26.2038 14.38 26.297 14.1311 26.2944C13.8822 26.2919 13.6438 26.1937 13.4653 26.0203C13.2867 25.8468 13.1817 25.6114 13.1719 25.3627C13.1735 25.2364 13.2001 25.1117 13.2503 24.9958C13.3004 24.8799 13.373 24.7751 13.4639 24.6874C13.5548 24.5998 13.6622 24.531 13.7799 24.4852C13.8975 24.4393 14.0231 24.4172 14.1494 24.4202Z" fill="#023B70"/>
<path d="M16.9339 19.7497C16.9306 19.6235 16.9535 19.4979 17.001 19.3809C17.0485 19.2639 17.1197 19.1579 17.21 19.0697C17.3004 18.9815 17.408 18.9128 17.5261 18.8681C17.6442 18.8233 17.7703 18.8035 17.8964 18.8097C18.0224 18.8094 18.1473 18.8341 18.2636 18.8825C18.38 18.9309 18.4856 19.0019 18.5742 19.0915C18.6629 19.1811 18.7328 19.2874 18.78 19.4042C18.8271 19.5211 18.8506 19.6462 18.8489 19.7722C18.8456 20.0273 18.7414 20.2707 18.5592 20.4492C18.377 20.6276 18.1315 20.7267 17.8764 20.7247C17.7502 20.7234 17.6256 20.6971 17.5097 20.6472C17.3938 20.5974 17.289 20.525 17.2013 20.4343C17.1136 20.3436 17.0448 20.2363 16.9989 20.1188C16.953 20.0013 16.9309 19.8758 16.9339 19.7497Z" fill="#023B70"/>
<path d="M17.8915 21.6122C18.0176 21.6109 18.1428 21.6347 18.2595 21.6824C18.3763 21.73 18.4824 21.8005 18.5716 21.8897C18.6608 21.9789 18.7312 22.085 18.7789 22.2017C18.8265 22.3185 18.8504 22.4436 18.849 22.5697C18.8464 22.8248 18.7429 23.0684 18.5611 23.2474C18.3793 23.4263 18.1341 23.5261 17.879 23.5247C17.7533 23.5237 17.629 23.4979 17.5133 23.4486C17.3977 23.3994 17.2929 23.3277 17.205 23.2378C17.1172 23.1479 17.048 23.0414 17.0015 22.9246C16.955 22.8078 16.932 22.6829 16.934 22.5572C16.9301 22.431 16.9523 22.3053 16.9992 22.1881C17.0461 22.0708 17.1167 21.9645 17.2066 21.8758C17.2965 21.7871 17.4037 21.7179 17.5216 21.6725C17.6394 21.6272 17.7654 21.6067 17.8915 21.6122Z" fill="#023B70"/>
<path d="M16.9341 25.3696C16.9299 25.2433 16.9517 25.1175 16.9983 25C17.0449 24.8825 17.1152 24.7758 17.2048 24.6867C17.2944 24.5976 17.4014 24.5278 17.5191 24.4819C17.6369 24.4359 17.7628 24.4148 17.8891 24.4196C18.0151 24.4183 18.1401 24.4421 18.2569 24.4895C18.3736 24.537 18.4798 24.6072 18.5691 24.6961C18.6585 24.785 18.7292 24.8907 18.7773 25.0072C18.8254 25.1237 18.8498 25.2486 18.8491 25.3746C18.8478 25.6297 18.7455 25.8739 18.5647 26.0538C18.3839 26.2337 18.1392 26.3346 17.8841 26.3346C17.7582 26.3343 17.6336 26.309 17.5175 26.2602C17.4014 26.2114 17.2961 26.1401 17.2078 26.0504C17.1194 25.9606 17.0497 25.8542 17.0028 25.7374C16.9558 25.6206 16.9325 25.4956 16.9341 25.3696Z" fill="#023B70"/>
<path d="M10.4061 18.802C10.5324 18.7992 10.6579 18.8223 10.7748 18.8699C10.8918 18.9175 10.9977 18.9886 11.0861 19.0789C11.1745 19.1691 11.2433 19.2765 11.2885 19.3945C11.3336 19.5124 11.3541 19.6384 11.3486 19.7645C11.3486 20.0154 11.2496 20.2562 11.0732 20.4345C10.8967 20.6129 10.657 20.7144 10.4061 20.717C10.2785 20.718 10.152 20.6937 10.0339 20.6455C9.91581 20.5973 9.80843 20.5261 9.718 20.4362C9.62756 20.3462 9.55586 20.2392 9.50704 20.1213C9.45823 20.0035 9.43326 19.8771 9.4336 19.7495C9.43389 19.6231 9.45944 19.4979 9.50873 19.3815C9.55802 19.265 9.63007 19.1596 9.72065 19.0713C9.81122 18.9831 9.91851 18.9138 10.0362 18.8675C10.1539 18.8213 10.2797 18.799 10.4061 18.802Z" fill="#023B70"/>
<path d="M10.3886 21.6121C10.5148 21.6069 10.6407 21.6277 10.7585 21.6732C10.8764 21.7186 10.9836 21.7878 11.0736 21.8764C11.1636 21.965 11.2344 22.0711 11.2817 22.1882C11.3291 22.3053 11.3518 22.4309 11.3486 22.5571C11.3506 22.683 11.3276 22.8081 11.281 22.9251C11.2343 23.042 11.1649 23.1486 11.0768 23.2386C10.9887 23.3285 10.8836 23.4001 10.7676 23.4492C10.6516 23.4983 10.5271 23.524 10.4011 23.5246C10.1465 23.5253 9.90192 23.4253 9.72069 23.2464C9.53946 23.0675 9.43628 22.8242 9.43365 22.5696C9.43231 22.4437 9.45609 22.3188 9.50358 22.2022C9.55107 22.0856 9.62132 21.9796 9.71023 21.8905C9.79915 21.8013 9.90494 21.7308 10.0214 21.683C10.1379 21.6352 10.2627 21.6111 10.3886 21.6121Z" fill="#023B70"/>
<path d="M10.3886 24.4196C10.5149 24.4148 10.6409 24.4359 10.7587 24.4817C10.8766 24.5274 10.9838 24.5968 11.0737 24.6856C11.1637 24.7744 11.2345 24.8807 11.2818 24.9979C11.329 25.1151 11.3518 25.2408 11.3486 25.3671C11.3506 25.493 11.3276 25.6181 11.281 25.7351C11.2343 25.852 11.1649 25.9586 11.0768 26.0486C10.9887 26.1386 10.8836 26.2102 10.7676 26.2593C10.6516 26.3084 10.5271 26.334 10.4011 26.3346C10.1465 26.3353 9.90192 26.2353 9.72069 26.0564C9.53946 25.8775 9.43628 25.6342 9.43365 25.3796C9.43232 25.2536 9.45608 25.1286 9.50354 25.0118C9.551 24.8951 9.62121 24.789 9.71009 24.6996C9.79897 24.6103 9.90474 24.5395 10.0212 24.4914C10.1377 24.4434 10.2626 24.4189 10.3886 24.4196Z" fill="#023B70"/>
</g>
<defs>
<clipPath id="clip0_1015_28638">
<rect width="32" height="32" rx="4" fill="white"/>
</clipPath>
</defs>
</svg>
