<svg width="20" height="18" viewBox="0 0 20 18" fill="none" xmlns="http://www.w3.org/2000/svg">
<path fill-rule="evenodd" clip-rule="evenodd" d="M5.5 1.70312C3.38961 1.70312 1.70312 3.38703 1.70312 5.51265C1.70312 8.27268 3.74759 10.964 5.98024 13.0503C7.07557 14.0739 8.17392 14.9128 8.99979 15.4963C9.41208 15.7875 9.75485 16.0141 9.99325 16.167C9.99644 16.169 9.99962 16.1711 10.0028 16.1731C10.0054 16.1714 10.0081 16.1697 10.0108 16.168C10.249 16.0171 10.5915 15.7934 11.0035 15.5051C11.8288 14.9277 12.9265 14.096 14.0211 13.077C16.2505 11.0016 18.2969 8.30649 18.2969 5.5C18.2969 3.38833 16.6117 1.70312 14.5 1.70312C13.5204 1.70312 12.5629 2.30263 11.7894 3.01666C11.4149 3.3624 11.1102 3.71033 10.8991 3.97234C10.794 4.10281 10.7133 4.21058 10.6598 4.28425C10.633 4.32105 10.6132 4.34924 10.6006 4.36737L10.5872 4.38681L10.585 4.39002L10.5847 4.39052L10 5.26758L9.41548 4.3908L9.41516 4.39032L9.41278 4.38681L9.3994 4.36737C9.38681 4.34924 9.36697 4.32105 9.34024 4.28425C9.28674 4.21058 9.20597 4.10281 9.10087 3.97234C8.88981 3.71033 8.58514 3.3624 8.21058 3.01666C7.43705 2.30263 6.47961 1.70312 5.5 1.70312ZM10 2.85399C9.77757 2.59371 9.4957 2.28915 9.16441 1.98334C8.31295 1.19737 7.02039 0.296875 5.5 0.296875C2.61039 0.296875 0.296875 2.61296 0.296875 5.51265C0.296875 8.90664 2.7526 11.9589 5.02013 14.0778C6.17489 15.1569 7.32664 16.036 8.18834 16.6448C8.61983 16.9496 8.98021 17.1879 9.23402 17.3507C9.36097 17.4321 9.46136 17.4947 9.5308 17.5374C9.56552 17.5588 9.5925 17.5752 9.61121 17.5865L9.63298 17.5996L9.63908 17.6032L9.64152 17.6047C9.64174 17.6048 9.64193 17.6049 10.0004 17L9.64152 17.6047L9.99777 17.8158L10.3549 17.6072L10.0004 17C10.3549 17.6072 10.3547 17.6073 10.3549 17.6072L10.3578 17.6055L10.364 17.6019L10.3858 17.5889C10.4045 17.5778 10.4316 17.5616 10.4663 17.5405C10.5359 17.4983 10.6363 17.4364 10.7634 17.3559C11.0174 17.195 11.3779 16.9594 11.8096 16.6574C12.6717 16.0542 13.824 15.1817 14.9793 14.1063C17.2497 11.9927 19.7031 8.93787 19.7031 5.5C19.7031 2.61168 17.3883 0.296875 14.5 0.296875C12.9796 0.296875 11.687 1.19737 10.8356 1.98334C10.5043 2.28915 10.2224 2.59371 10 2.85399Z" fill="#023B70"/>
</svg>
