<svg width="32" height="32" viewBox="0 0 32 32" fill="none" xmlns="http://www.w3.org/2000/svg">
<g clip-path="url(#clip0_1015_28636)">
<rect width="32" height="32" rx="4" fill="#0055A3" fill-opacity="0.05"/>
<path d="M25.9998 13.0799C25.9998 17.3349 25.9998 21.5849 25.9998 25.8299C25.9998 25.9624 25.9748 25.9899 25.8398 25.9899C23.9265 25.9899 22.0148 25.9899 20.1048 25.9899C20.1048 25.9199 20.0898 25.8499 20.0898 25.7774V13.3349C20.0898 13.0674 20.0898 13.0674 20.3598 13.0674C22.1682 13.0674 23.9757 13.0674 25.7823 13.0674C25.8548 13.0674 25.9248 13.0749 25.9998 13.0799Z" fill="#023B70"/>
<path d="M25.9989 6.40791V11.9079C25.9264 11.9079 25.8564 11.9229 25.7839 11.9229H13.3389C13.0664 11.9229 13.0664 11.9229 13.0664 11.6379C13.0664 9.86291 13.0664 8.08791 13.0664 6.31291C13.0664 6.00291 13.0664 6.00291 13.3714 6.00041C17.3514 6.00041 21.3306 6.00041 25.3089 6.00041C25.4523 5.98612 25.5965 6.01793 25.7206 6.09121C25.8447 6.16449 25.9422 6.27543 25.9989 6.40791Z" fill="#023B70"/>
<path d="M18.9347 25.9998H6.40968C6.27625 25.9442 6.16431 25.847 6.09046 25.7227C6.0166 25.5984 5.98477 25.4536 5.99968 25.3098C5.99968 23.6648 5.99968 22.0198 5.99968 20.3748C5.99968 20.0898 5.99968 20.0898 6.27218 20.0898H18.6797C18.9472 20.0898 18.9472 20.0898 18.9472 20.3598C18.9472 22.1682 18.9472 23.9757 18.9472 25.7823C18.9472 25.8548 18.9397 25.9248 18.9347 25.9998Z" fill="#023B70"/>
<path d="M11.9251 12.4802V18.6627C11.9251 18.9477 11.9251 18.9477 11.6326 18.9477H6.29013C6.00513 18.9477 6.00513 18.9477 6.00513 18.6752C6.00513 14.6752 6.00513 10.6711 6.00513 6.66275C5.99321 6.57293 6.00213 6.48157 6.03121 6.39576C6.06029 6.30995 6.10874 6.23199 6.17281 6.16792C6.23687 6.10386 6.31484 6.05541 6.40065 6.02633C6.48646 5.99725 6.57781 5.98833 6.66763 6.00025H11.6676C11.9326 6.00025 11.9326 6.00025 11.9326 6.27275L11.9251 12.4802Z" fill="#023B70"/>
<path d="M16.0264 13.0654C16.9164 13.0654 17.8089 13.0654 18.6989 13.0654C18.8964 13.0654 18.9489 13.1254 18.9489 13.3154C18.9489 15.1104 18.9489 16.9046 18.9489 18.6979C18.9489 18.8954 18.8889 18.9479 18.6989 18.9479C16.9039 18.9479 15.1097 18.9479 13.3164 18.9479C13.1189 18.9479 13.0664 18.8879 13.0664 18.6979C13.0664 16.9029 13.0664 15.1088 13.0664 13.3154C13.0664 13.1179 13.1264 13.0654 13.3164 13.0654C14.2189 13.0704 15.1239 13.0654 16.0264 13.0654Z" fill="#023B70"/>
</g>
<defs>
<clipPath id="clip0_1015_28636">
<rect width="32" height="32" rx="4" fill="white"/>
</clipPath>
</defs>
</svg>
