<svg width="32" height="32" viewBox="0 0 32 32" fill="none" xmlns="http://www.w3.org/2000/svg">
<g clip-path="url(#clip0_1015_28623)">
<rect width="32" height="32" rx="4" fill="#0055A3" fill-opacity="0.05"/>
<path d="M16.487 4.75C16.9219 4.8175 17.3392 4.97018 17.715 5.19926C18.0908 5.42835 18.4177 5.72934 18.677 6.085C19.0925 6.63663 19.3156 7.30937 19.312 8C19.312 10.7433 19.312 13.4867 19.312 16.23C19.3057 16.3223 19.3239 16.4145 19.3647 16.4975C19.4055 16.5805 19.4675 16.6512 19.5445 16.7025C20.1877 17.1797 20.7246 17.7856 21.121 18.4815C21.5174 19.1775 21.7646 19.9483 21.847 20.745C22.0003 22.117 21.6652 23.4991 20.9005 24.6485C20.1358 25.7979 18.9905 26.641 17.6658 27.0297C16.341 27.4183 14.9218 27.3276 13.6573 26.7735C12.3928 26.2194 11.3641 25.2374 10.752 24C10.2123 22.9247 10.0187 21.7086 10.1977 20.5188C10.3768 19.3291 10.9197 18.2239 11.752 17.355C11.9939 17.0795 12.2684 16.8344 12.5695 16.625C12.6225 16.5866 12.6639 16.5343 12.689 16.4738C12.7141 16.4134 12.7221 16.3472 12.712 16.2825C12.712 13.8025 12.712 11.3225 12.712 8.8425C12.6697 8.33151 12.6941 7.8172 12.7845 7.3125C12.922 6.66866 13.2511 6.08148 13.7285 5.62815C14.2059 5.17482 14.8094 4.87653 15.4595 4.7725C15.4808 4.76652 15.5017 4.759 15.522 4.75H16.487ZM17.797 12.5275C17.797 11.0125 17.797 9.5 17.797 7.985C17.7797 7.52282 17.5839 7.08534 17.2508 6.76447C16.9177 6.4436 16.4732 6.26434 16.0107 6.26434C15.5482 6.26434 15.1037 6.4436 14.7706 6.76447C14.4375 7.08534 14.2417 7.52282 14.2245 7.985C14.2245 8.2775 14.2245 8.57 14.2245 8.8625C14.2245 11.6042 14.2245 14.3467 14.2245 17.09C14.235 17.1794 14.2163 17.2698 14.1713 17.3478C14.1262 17.4257 14.0572 17.487 13.9745 17.5225C13.8007 17.6159 13.6337 17.7211 13.4745 17.8375C12.7846 18.3418 12.2556 19.0352 11.9517 19.8338C11.6478 20.6325 11.5818 21.5022 11.762 22.3375C12.0106 23.4287 12.6698 24.3822 13.6028 25.0004C14.5358 25.6185 15.6709 25.8537 16.7727 25.6572C17.8745 25.4607 18.8583 24.8476 19.5201 23.9451C20.1819 23.0425 20.4708 21.9199 20.327 20.81C20.2439 20.1176 19.9923 19.4562 19.5944 18.8835C19.1965 18.3108 18.6643 17.8444 18.0445 17.525C17.9632 17.4876 17.8955 17.426 17.8507 17.3485C17.8059 17.271 17.7863 17.1816 17.7945 17.0925C17.7995 15.57 17.797 14.05 17.797 12.5275Z" fill="#023B70"/>
<path d="M16.7512 14.9353C16.7512 15.8578 16.7512 16.7778 16.7512 17.7003C16.7424 17.7892 16.7618 17.8785 16.8067 17.9557C16.8516 18.0329 16.9196 18.094 17.0012 18.1303C17.474 18.3551 17.9112 18.6483 18.2987 19.0003C19.2337 19.9553 19.5487 21.0903 19.1612 22.3653C18.9994 22.9458 18.675 23.4679 18.2263 23.8701C17.7776 24.2723 17.2233 24.5378 16.6287 24.6353C16.1785 24.7243 15.7148 24.7184 15.2671 24.6178C14.8194 24.5172 14.3977 24.3243 14.0289 24.0513C13.6601 23.7782 13.3524 23.4312 13.1255 23.0324C12.8986 22.6336 12.7574 22.1918 12.7112 21.7353C12.5887 20.3153 13.1787 19.2353 14.3987 18.4853C14.5912 18.3678 14.7837 18.2353 14.9862 18.1478C15.0752 18.1123 15.1498 18.0479 15.1979 17.9649C15.2459 17.882 15.2647 17.7852 15.2512 17.6903C15.2512 15.8378 15.2512 13.9878 15.2512 12.1378C15.2465 11.9389 15.3211 11.7463 15.4585 11.6024C15.5958 11.4584 15.7848 11.375 15.9837 11.3703C16.1826 11.3657 16.3752 11.4402 16.5191 11.5776C16.6631 11.715 16.7465 11.9039 16.7512 12.1028C16.7662 13.0478 16.7512 14.0003 16.7512 14.9353Z" fill="#023B70"/>
</g>
<defs>
<clipPath id="clip0_1015_28623">
<rect width="32" height="32" rx="4" fill="white"/>
</clipPath>
</defs>
</svg>
