<svg xmlns="http://www.w3.org/2000/svg" viewBox="0 0 48 48" id="linkedin">
  <defs>
    <linearGradient id="a" x1="23.88" x2="23.88" y1="9.79" y2="37.86" gradientUnits="userSpaceOnUse">
      <stop offset="0" stop-color="#fff"></stop>
      <stop offset="1" stop-color="#fff"></stop>
    </linearGradient>
  </defs>
  <circle cx="24" cy="24" r="22" fill="#007bb5" transform="rotate(-76.65 24.002 23.998)"></circle>
  <path fill="url(#a)" d="M10.29,19.11h5.82V37.86H10.29ZM13.2,9.79a3.38,3.38,0,1,1-3.38,3.38A3.38,3.38,0,0,1,13.2,9.79Zm6.57,28.07H25.6V28.58c0-2.44.46-4.81,3.49-4.81s3,2.79,3,5v9.12H38V27.57c0-5-1.09-8.93-7-8.93a6.13,6.13,0,0,0-5.51,3h-.08V19.11H19.77Z"></path>
</svg>
