<svg width="164" height="36" viewBox="0 0 164 36" fill="none" xmlns="http://www.w3.org/2000/svg">
<path fill-rule="evenodd" clip-rule="evenodd" d="M78 0C68.0343 0 60 8.07296 60 18C60 27.9657 68.073 36 78 36C87.9657 36 96 27.927 96 18C96 8.07296 87.927 0 78 0Z" fill="#C90C0F"/>
<path fill-rule="evenodd" clip-rule="evenodd" d="M84.9902 25.4422L84.3735 26.3954C84.335 26.4941 84.2579 26.5269 84.1037 26.5269C78.5154 25.5737 73.2739 26.5269 71.3854 26.9871C71.2312 27.02 71.2312 26.9871 71.1542 26.9214L71 26.5598C71 26.4612 71 26.4283 71.1156 26.4283C73.1583 25.5408 79.5945 24.489 84.7975 25.2779C84.9516 25.245 85.0287 25.3107 84.9902 25.4422Z" fill="white"/>
<path fill-rule="evenodd" clip-rule="evenodd" d="M87.9941 22.3347L87.3776 23.7101C87.3006 23.8476 87.262 23.9164 87.0694 23.882C79.672 23.2287 73.0453 25.1542 70.618 25.9794C70.4254 26.0138 70.3868 26.0138 70.3098 25.9107L70.0401 25.4637C69.963 25.3605 70.0016 25.2918 70.1171 25.223C72.6215 23.7788 80.8279 21.6126 87.6858 22.0596C87.8785 22.094 88.0326 22.1628 87.9941 22.3347Z" fill="white"/>
<path fill-rule="evenodd" clip-rule="evenodd" d="M87.1723 18.5875C86.9842 18.5875 86.7584 18.5875 86.5703 18.5875C86.0812 18.5875 85.7802 18.5875 85.5545 18.5875C85.1406 18.5875 84.9148 18.8607 84.9148 19.2511C84.9148 19.6804 84.9148 19.6414 84.9148 19.9927C84.9148 20.0707 84.9525 20.422 84.6139 20.422C77.8416 20.6562 73.4396 22.4907 72.3861 22.9591C72.0851 23.0762 71.9723 22.9201 71.9723 22.764C71.9723 21.9443 71.9723 19.6414 71.9723 19.2901C71.9723 18.8998 71.7465 18.6265 71.3703 18.6265C70.9564 18.6265 70.2792 18.6265 69.6396 18.6265C69.2634 18.6265 69 18.3143 69 17.924C69 17.7678 69.0376 17.6507 69.1129 17.5336C71.3703 15.1917 76.4871 9.80524 77.8792 8.32202C78.2931 7.89266 78.8198 7.89266 79.3089 8.32202C81.0772 10.1956 85.8178 15.3088 87.2851 16.8701C87.4733 17.0652 87.5861 17.2214 87.7366 17.3385L87.7743 17.3775C87.7743 17.3775 87.7743 17.3775 87.8119 17.4165C87.9248 17.5727 88 17.7288 88 17.924C87.8871 18.3143 87.6238 18.5875 87.1723 18.5875Z" fill="white"/>
<path fill-rule="evenodd" clip-rule="evenodd" d="M80.614 14H79.386C79.1754 14 79 14.1754 79 14.386V15.614C79 15.8246 79.1754 16 79.386 16H80.614C80.8246 16 81 15.8246 81 15.614V14.386C81 14.1754 80.8246 14 80.614 14Z" fill="#C90C0F"/>
<path fill-rule="evenodd" clip-rule="evenodd" d="M80.614 17H79.386C79.1754 17 79 17.1754 79 17.386V18.614C79 18.8246 79.1754 19 79.386 19H80.614C80.8246 19 81 18.8246 81 18.614V17.386C81 17.1754 80.8246 17 80.614 17Z" fill="#C90C0F"/>
<path fill-rule="evenodd" clip-rule="evenodd" d="M77.6109 14H76.3852C76.1751 14 76 14.1754 76 14.386V15.614C76 15.8246 76.1751 16 76.3852 16H77.6109C77.8211 16 77.9962 15.8246 77.9962 15.614V14.386C78.0312 14.1754 77.8211 14 77.6109 14Z" fill="#C90C0F"/>
<path fill-rule="evenodd" clip-rule="evenodd" d="M77.6109 17H76.3852C76.1751 17 76 17.1754 76 17.386V18.614C76 18.8246 76.1751 19 76.3852 19H77.6109C77.8211 19 77.9962 18.8246 77.9962 18.614V17.386C78.0312 17.1754 77.8211 17 77.6109 17Z" fill="#C90C0F"/>
<path d="M48.0559 16.2775V17.9151C48.0559 17.9541 48.0559 17.9931 48.0559 18.0321C48.0559 18.0711 48.0559 18.0711 48.0559 18.1101V18.1491C48.1304 18.461 48.354 18.656 48.6894 18.656H50.3665C50.6646 18.656 50.8882 18.461 50.9627 18.1881C50.9627 18.1101 51 17.9931 51 17.9151V16.2775C51 12.8073 48.3168 10 45 10C41.6832 10 39 12.8073 39 16.2775V26.3372C39 26.3761 39 26.4151 39 26.4931C39.0745 26.805 39.2981 27 39.6335 27H41.3106C41.646 27 41.9441 26.6881 41.9441 26.3372V16.2775C41.9441 14.5229 43.323 13.0803 45 13.0803C46.677 13.0803 48.0559 14.5229 48.0559 16.2775Z" fill="#0055A3"/>
<path d="M29.0559 16.2775V26.3372V26.3761C29.0932 26.7271 29.354 27 29.6894 27H31.3665C31.7019 27 32 26.6881 32 26.3372V16.2775C32 12.8073 29.3168 10 26 10C22.6832 10 20 12.8073 20 16.2775V26.3372C20 26.6881 20.2981 27 20.6335 27H22.3106C22.646 27 22.9068 26.7271 22.9441 26.4151C22.9441 26.3761 22.9441 26.3761 22.9441 26.3372V16.2775C22.9441 14.5229 24.323 13.0803 26 13.0803C27.677 13.0803 29.0559 14.5229 29.0559 16.2775Z" fill="#0055A3"/>
<path d="M144 23V21.2353C144 20.8824 143.695 20.5686 143.351 20.5686C143.351 20.5686 143.351 20.5686 143.351 20.5294C143.313 20.5294 143.237 20.5294 143.198 20.5294H142.015V11.6667C142.015 11.6275 142.015 11.6275 142.015 11.5882C141.977 11.2353 141.71 11 141.366 11H139.649C139.305 11 139 11.3137 139 11.6667V26.3333C139 26.3725 139 26.4118 139 26.451C139.038 26.7647 139.305 27 139.649 27H141.366C141.71 27 142.015 26.6863 142.015 26.3333V23.6667H143.198C143.389 23.6667 143.58 23.6274 143.733 23.549C143.924 23.4314 144 23.2353 144 23Z" fill="#0055A3"/>
<path d="M133.056 16.3651V26.3279C133.056 26.3674 133.056 26.407 133.056 26.4465C133.093 26.7628 133.354 27 133.689 27H135.366C135.702 27 136 26.6837 136 26.3279V16.3651C136 12.8465 133.317 10 130 10C126.683 10 124 12.8465 124 16.3651V26.3279C124 26.6837 124.298 27 124.634 27H126.311C126.646 27 126.944 26.6837 126.944 26.3279V16.3651C126.944 14.586 128.323 13.1233 130 13.1233C131.714 13.1233 133.056 14.5465 133.056 16.3651Z" fill="#0055A3"/>
<path d="M111.312 17.3866C109.966 17.2311 108.977 17.1145 108.502 16.5702C108.027 16.0259 108.106 15.2873 108.145 15.1317C108.145 15.0929 108.502 13.0713 111.391 13.0713C112.341 13.0713 113.132 13.4212 113.686 13.8877C114.042 14.2376 114.319 14.5486 114.794 14.5486H116.734C117.09 14.5486 117.367 14.2765 117.406 13.9266C117.406 13.6933 117.327 13.46 117.208 13.2657C116.259 11.6717 114.201 10 111.391 10C107.552 10 105.415 12.4104 105.058 14.6263C104.979 15.1706 104.781 16.9978 106.127 18.5529C107.235 19.8359 108.977 20.2635 111.312 20.4579C113.686 20.6911 114.834 21.2354 114.834 22.8294C114.834 24.1123 113.488 24.9287 111.312 24.9287C110.006 24.9287 109.135 24.4622 108.581 23.9568C108.185 23.6069 108.066 23.4125 107.631 23.4125H105.692C105.335 23.4125 105.019 23.7235 105.019 24.0734C105.058 24.2289 105.098 24.3844 105.177 24.5011C105.731 25.5508 107.473 28 111.351 28C115.942 28 118 25.3952 118 22.8294C118 21.3909 117.446 20.0691 116.496 19.0972C115.23 17.9698 113.567 17.6587 111.312 17.3866Z" fill="#0055A3"/>
<path d="M15 19.8505C15 19.811 15 19.811 15 19.8505C14.9225 19.5341 14.6512 19.2967 14.3411 19.2967H12.5969C12.2481 19.2967 11.938 19.6132 11.938 19.9692V20.0088V21.6703C11.938 23.4505 10.5039 24.9143 8.75969 24.9143C7.0155 24.9143 5.5814 23.4505 5.5814 21.6703V10.8703C5.5814 10.4352 5.34884 10 4.76744 10H0.736434C0.697674 10 0.697674 10 0.658915 10C0.310078 10 0 10.3165 0 10.6725V12.4527C0 12.7692 0.193798 13.0066 0.503876 13.0857C0.581395 13.1253 0.658915 13.1253 0.736434 13.1253C0.736434 13.1253 1.43411 13.1253 1.82171 13.1253C2.28682 13.1253 2.51938 13.3231 2.51938 13.956C2.51938 14.4703 2.51938 21.6308 2.51938 21.6308C2.51938 25.1516 5.31008 28 8.75969 28C12.2093 28 15 25.1516 15 21.6308V19.9692C15 19.9297 15 19.8901 15 19.8505Z" fill="#0055A3"/>
<path d="M164 19.8505C164 19.811 164 19.811 164 19.8505C163.923 19.5341 163.652 19.2967 163.343 19.2967H161.603C161.255 19.2967 160.946 19.6132 160.946 19.9692V20.0088V21.6703C160.946 23.4505 159.515 24.9143 157.776 24.9143C156.036 24.9143 154.606 23.4505 154.606 21.6703V10.8703C154.606 10.4352 154.374 10 153.794 10H149.735C149.696 10 149.696 10 149.657 10C149.309 10 149 10.3165 149 10.6725V12.4527C149 12.7692 149.193 13.0066 149.503 13.0857C149.58 13.0857 149.657 13.1253 149.735 13.1253C149.735 13.1253 150.43 13.1253 150.817 13.1253C151.281 13.1253 151.513 13.3231 151.513 13.956C151.513 14.4703 151.513 21.6308 151.513 21.6308C151.513 25.1516 154.296 28 157.737 28C161.178 28 163.961 25.1516 163.961 21.6308V19.9692C164 19.9297 164 19.8901 164 19.8505Z" fill="#0055A3"/>
</svg>
