<svg width="56" height="34" viewBox="0 0 56 34" fill="none" xmlns="http://www.w3.org/2000/svg">
<g id="MasterCard_Logo 1">
<g id="layer1">
<g id="g10305">
<path id="path2268" d="M48.8767 17.2992C48.8788 24.5044 43.1854 30.3464 36.1604 30.3483C29.1352 30.3501 23.4394 24.511 23.4375 17.3059C23.4375 17.3035 23.4375 17.3016 23.4375 17.2992C23.4356 10.0942 29.129 4.25191 36.1538 4.25C43.1789 4.24809 48.8749 10.0875 48.8767 17.2926C48.8767 17.2948 48.8767 17.2969 48.8767 17.2992Z" fill="#FF9900"/>
<path id="path1350" d="M19.0127 4.253C12.0293 4.29849 6.375 10.1256 6.375 17.2988C6.375 24.5 12.0734 30.3445 19.0947 30.3445C22.39 30.3445 25.3937 29.0565 27.654 26.9454C27.654 26.9454 27.6536 26.9451 27.653 26.9449H27.6557C28.1186 26.5123 28.5502 26.0455 28.947 25.5479H26.3411C25.9931 25.1168 25.6768 24.6676 25.3927 24.2041H29.8872C30.1605 23.7554 30.408 23.2896 30.6276 22.8071H24.6507C24.447 22.3592 24.2701 21.9011 24.1191 21.4365H31.1598C31.5841 20.1361 31.8144 18.7448 31.8144 17.2987C31.8144 16.3399 31.713 15.4051 31.5212 14.505H23.7457C23.8421 14.0418 23.9637 13.5842 24.1086 13.1346H31.1519C30.9944 12.656 30.8115 12.1897 30.6035 11.7377H24.65C24.8647 11.2672 25.1081 10.8094 25.3798 10.3674H29.8709C29.5721 9.87903 29.2413 9.41244 28.8837 8.97044H26.3797C26.7669 8.50311 27.1931 8.06302 27.6557 7.65267C25.3953 5.54131 22.3907 4.253 19.0947 4.253C19.0673 4.253 19.0401 4.25285 19.0127 4.253Z" fill="#CC0000"/>
<path id="use9412" d="M47.6 24.1191C47.6692 24.1191 47.7366 24.1375 47.8023 24.1738C47.8684 24.21 47.9192 24.2623 47.9559 24.3301C47.9927 24.3973 48.011 24.4681 48.011 24.5414C48.011 24.6139 47.9928 24.6839 47.9566 24.7511C47.9206 24.8181 47.8698 24.8703 47.8043 24.9076C47.7396 24.9443 47.6711 24.9628 47.5999 24.9628C47.5287 24.9628 47.4604 24.9443 47.3952 24.9076C47.3299 24.8702 47.2793 24.8182 47.2426 24.7511C47.2064 24.6839 47.1885 24.6139 47.1885 24.5414C47.1885 24.4681 47.2067 24.3973 47.2436 24.3301C47.2806 24.2623 47.3317 24.2104 47.3973 24.1738C47.4637 24.1375 47.531 24.1191 47.6 24.1191ZM47.6 24.1891C47.5425 24.1891 47.4862 24.2044 47.4312 24.2349C47.3767 24.2653 47.334 24.3085 47.3033 24.3656C47.2722 24.4219 47.2567 24.4802 47.2567 24.5414C47.2567 24.6021 47.2719 24.6607 47.3019 24.7163C47.3326 24.7718 47.3751 24.8154 47.4294 24.8466C47.4841 24.8777 47.5408 24.893 47.5999 24.893C47.6593 24.893 47.7162 24.8777 47.7706 24.8466C47.8249 24.8154 47.8672 24.7718 47.8975 24.7163C47.9275 24.6607 47.9424 24.6022 47.9424 24.5414C47.9424 24.4802 47.9272 24.4217 47.8963 24.3656C47.8658 24.3085 47.823 24.2653 47.768 24.2349C47.7136 24.2042 47.6576 24.1891 47.6 24.1891ZM47.4197 24.7743V24.3206H47.5722C47.6239 24.3206 47.6615 24.3247 47.6847 24.3335C47.708 24.3419 47.7265 24.3562 47.7404 24.3772C47.7541 24.398 47.7611 24.4201 47.7611 24.4436C47.7611 24.4769 47.7496 24.5058 47.7264 24.5302C47.7037 24.5547 47.6728 24.5687 47.6346 24.5716C47.6503 24.5782 47.6628 24.5866 47.6725 24.5957C47.6905 24.6134 47.712 24.6433 47.7379 24.6856L47.7917 24.7743H47.7047L47.6657 24.7029C47.6348 24.6467 47.61 24.6116 47.5909 24.5972C47.5778 24.5871 47.5587 24.5818 47.5339 24.5818H47.4918V24.7748H47.42M47.4912 24.5189H47.5779C47.6193 24.5189 47.6473 24.5124 47.6624 24.4999C47.6776 24.4869 47.6852 24.4704 47.6852 24.4495C47.6852 24.436 47.6817 24.4239 47.6744 24.4136C47.6669 24.4029 47.6569 24.3952 47.6438 24.3898C47.6311 24.3846 47.6072 24.3817 47.5725 24.3817H47.4915V24.5189" fill="#FCB340"/>
</g>
<g id="g16480">
<g id="g13802">
<path id="path13804" d="M23.3157 21.043L23.4851 19.8621C23.3925 19.8621 23.2564 19.9032 23.1361 19.9032C22.6647 19.9032 22.6058 19.6448 22.6429 19.4561L23.1074 17.0812H23.824L23.9718 15.7409H23.2963L23.4339 14.9287H22.021C21.9911 14.9593 21.2217 19.4963 21.2217 20.049C21.2217 20.8669 21.6693 21.2309 22.3006 21.2251C22.7948 21.2208 23.1799 21.0805 23.3157 21.043Z" fill="#000066"/>
<path id="path13806" d="M23.7441 18.7917C23.7441 20.7547 25.0073 21.221 26.0837 21.221C27.0772 21.221 27.5982 20.9848 27.5982 20.9848L27.8368 19.6449C27.8368 19.6449 26.9972 19.9951 26.3149 19.9951C24.8606 19.9951 25.1155 18.8828 25.1155 18.8828L27.9095 18.8915C27.9095 18.8915 28.0874 17.9918 28.0874 17.625C28.0874 16.7096 27.6012 15.5859 26.1142 15.5859C24.7525 15.5862 23.7441 17.0911 23.7441 18.7917ZM26.1194 16.8298C26.8837 16.8298 26.7427 17.7108 26.7427 17.7823H25.2391C25.2391 17.691 25.3811 16.8298 26.1194 16.8298Z" fill="#000066"/>
<path id="path13808" d="M34.6952 21.0424L34.9377 19.5282C34.9377 19.5282 34.2727 19.87 33.8169 19.87C32.8561 19.87 32.4707 19.1176 32.4707 18.3091C32.4707 16.6693 33.2973 15.7671 34.2174 15.7671C34.9077 15.7671 35.4613 16.1645 35.4613 16.1645L35.6824 14.6931C35.6824 14.6931 35.0287 14.2089 34.325 14.2061C32.2082 14.1976 30.9971 15.7091 30.9971 18.3221C30.9971 20.054 31.894 21.2326 33.5101 21.2326C33.9671 21.2326 34.6952 21.0424 34.6952 21.0424Z" fill="#000066"/>
<path id="path13810" d="M15.8664 15.6084C14.9378 15.6084 14.226 15.9145 14.226 15.9145L14.0293 17.1111C14.0293 17.1111 14.6169 16.8662 15.5052 16.8662C16.0095 16.8662 16.3785 16.9244 16.3785 17.3448C16.3785 17.6001 16.3334 17.6943 16.3334 17.6943C16.3334 17.6943 15.9355 17.6603 15.7511 17.6603C14.429 17.6603 13.3496 18.173 13.3496 19.7186C13.3496 20.9367 14.1568 21.216 14.6571 21.216C15.6128 21.216 15.991 20.5972 16.0128 20.5954L16.0018 21.109H17.1943L17.7263 17.2838C17.7263 15.6605 16.3459 15.6084 15.8664 15.6084ZM16.0728 18.7145C16.0988 18.948 16.014 20.0523 15.1983 20.0523C14.7777 20.0523 14.6684 19.7225 14.6684 19.5278C14.6684 19.1474 14.8699 18.6911 15.8621 18.6911C16.0932 18.6911 16.0339 18.7082 16.0728 18.7145Z" fill="#000066"/>
<path id="path13812" d="M18.9944 21.187C19.2995 21.187 21.0432 21.2667 21.0432 19.4211C21.0432 17.6953 19.4291 18.0365 19.4291 17.343C19.4291 16.9982 19.6922 16.8895 20.1733 16.8895C20.3641 16.8895 21.0988 16.9518 21.0988 16.9518L21.2695 15.7253C21.2695 15.7253 20.794 15.6162 20.02 15.6162C19.0181 15.6162 18.0012 16.0264 18.0012 17.4299C18.0012 19.0203 19.6968 18.8606 19.6968 19.5305C19.6968 19.9776 19.2231 20.0144 18.8579 20.0144C18.2261 20.0144 17.6574 19.792 17.6553 19.8027L17.4746 21.0167C17.5075 21.027 17.8585 21.187 18.9944 21.187Z" fill="#000066"/>
<path id="path13814" d="M45.8671 14.4951L45.6223 16.3663C45.6223 16.3663 45.1123 15.6441 44.3143 15.6441C42.8128 15.6441 42.0391 17.1788 42.0391 18.9416C42.0391 20.0798 42.5909 21.1954 43.7185 21.1954C44.5297 21.1954 44.9795 20.6151 44.9795 20.6151L44.9199 21.1106H46.2375L47.2721 14.5053L45.8671 14.4951ZM45.2854 18.132C45.2854 18.8657 44.9311 19.8458 44.1971 19.8458C43.7096 19.8458 43.4811 19.426 43.4811 18.7675C43.4811 17.6904 43.9527 16.98 44.548 16.98C45.0352 16.98 45.2854 17.3231 45.2854 18.132Z" fill="#000066"/>
<path id="path13816" d="M8.53407 21.1148L9.35851 16.1279L9.47967 21.1148H10.4126L12.1532 16.1279L11.3822 21.1148H12.7687L13.8363 14.5006L11.6339 14.4834L10.3238 18.533L10.2879 14.5006H8.2695L7.18652 21.1148H8.53407Z" fill="#000066"/>
<path id="path13818" d="M29.3997 21.1247C29.7939 18.8256 29.9343 17.0099 31.0839 17.3859C31.249 16.496 31.6425 15.7221 31.8222 15.3455C31.8222 15.3455 31.7653 15.2588 31.41 15.2588C30.8035 15.2588 29.9937 16.5212 29.9937 16.5212L30.1147 15.7407H28.8535L28.0088 21.1245L29.3997 21.1247Z" fill="#000066"/>
<g id="use14699">
<path id="path13810_1_" d="M37.5326 15.6064C36.6035 15.6064 35.8917 15.9125 35.8917 15.9125L35.6952 17.1091C35.6952 17.1091 36.2831 16.8643 37.171 16.8643C37.6754 16.8643 38.0442 16.9224 38.0442 17.3428C38.0442 17.5981 37.9993 17.6923 37.9993 17.6923C37.9993 17.6923 37.6015 17.6583 37.4172 17.6583C36.0949 17.6583 35.0156 18.171 35.0156 19.7167C35.0156 20.9348 35.8227 21.2141 36.323 21.2141C37.2783 21.2141 37.6569 20.5952 37.6786 20.5935L37.6674 21.107H38.8602L39.392 17.2818C39.3922 15.6586 38.0118 15.6064 37.5326 15.6064ZM37.7387 18.7125C37.7646 18.9461 37.6797 20.0503 36.8642 20.0503C36.4433 20.0503 36.3342 19.7205 36.3342 19.5259C36.3342 19.1454 36.5354 18.6891 37.5278 18.6891C37.7591 18.6891 37.7 18.7062 37.7387 18.7125Z" fill="#000066"/>
</g>
<path id="use14701" d="M40.7652 21.1244C40.9817 19.4329 41.3824 17.0583 42.4493 17.3856C42.6142 16.4957 42.4551 16.4981 42.1 16.4981C41.493 16.4981 41.3587 16.5207 41.3587 16.5207L41.4798 15.7402H40.2187L39.374 21.1242L40.7652 21.1244Z" fill="#000066"/>
</g>
<g id="g10289">
<path id="path4157" d="M23.6685 20.6213L23.8381 19.4406C23.7455 19.4406 23.6093 19.4812 23.4891 19.4812C23.0177 19.4812 22.9657 19.2241 22.9957 19.034L23.3766 16.625H24.093L24.266 15.319H23.5904L23.728 14.5068H22.3737C22.3438 14.5375 21.5742 19.0745 21.5742 19.627C21.5742 20.4449 22.022 20.8091 22.6533 20.8032C23.1477 20.799 23.5327 20.6586 23.6685 20.6213Z" fill="white"/>
<path id="path4155" d="M24.0986 18.37C24.0986 20.3329 25.3619 20.7994 26.4382 20.7994C27.4316 20.7994 27.8687 20.5716 27.8687 20.5716L28.1073 19.2319C28.1073 19.2319 27.3516 19.5733 26.6691 19.5733C25.2149 19.5733 25.4696 18.4613 25.4696 18.4613H28.2218C28.2218 18.4613 28.3995 17.5612 28.3995 17.1944C28.3995 16.2792 27.9554 15.1641 26.4684 15.1641C25.1067 15.1644 24.0986 16.6693 24.0986 18.37ZM26.4736 16.4081C27.2379 16.4081 27.0969 17.289 27.0969 17.3602H25.5933C25.5933 17.2692 25.7354 16.4081 26.4736 16.4081Z" fill="white"/>
<path id="path4151" d="M35.0499 20.6206L35.2922 19.1063C35.2922 19.1063 34.6277 19.448 34.1716 19.448C33.211 19.448 32.8257 18.6957 32.8257 17.8873C32.8257 16.2476 33.6523 15.3455 34.5725 15.3455C35.2625 15.3455 35.8164 15.7428 35.8164 15.7428L36.0374 14.2715C36.0374 14.2715 35.2162 13.9307 34.5122 13.9307C32.9487 13.9307 31.4277 15.3217 31.4277 17.9343C31.4277 19.6667 32.249 20.8109 33.8652 20.8109C34.3221 20.811 35.0499 20.6206 35.0499 20.6206Z" fill="white"/>
<path id="path4149" d="M16.2211 15.1865C15.2924 15.1865 14.5805 15.4926 14.5805 15.4926L14.384 16.6892C14.384 16.6892 14.9715 16.4444 15.8597 16.4444C16.364 16.4444 16.733 16.5025 16.733 16.9229C16.733 17.1782 16.6877 17.2724 16.6877 17.2724C16.6877 17.2724 16.29 17.2383 16.1058 17.2383C14.9345 17.2383 13.7041 17.7509 13.7041 19.2966C13.7041 20.5146 14.5113 20.794 15.0116 20.794C15.9671 20.794 16.379 20.1581 16.4009 20.1562L16.3563 20.687H17.5488L18.0808 16.8616C18.0808 15.2388 16.7005 15.1865 16.2211 15.1865ZM16.5112 18.3012C16.537 18.5348 16.3683 19.6301 15.5529 19.6301C15.1323 19.6301 15.0229 19.3006 15.0229 19.1056C15.0229 18.7255 15.2243 18.2691 16.2167 18.2691C16.4476 18.2694 16.4723 18.2947 16.5112 18.3012Z" fill="white"/>
<path id="path4145" d="M19.3478 20.7653C19.6529 20.7653 21.3968 20.8448 21.3968 18.9992C21.3968 17.2737 19.7825 17.6146 19.7825 16.9214C19.7825 16.5763 20.0456 16.4676 20.5265 16.4676C20.7175 16.4676 21.452 16.5299 21.452 16.5299L21.6229 15.3034C21.6229 15.3034 21.1474 15.1943 20.3734 15.1943C19.3715 15.1943 18.3545 15.6045 18.3545 17.008C18.3545 18.5983 20.0502 18.4387 20.0502 19.1086C20.0502 19.5558 19.5765 19.5921 19.2114 19.5921C18.5796 19.5921 18.0107 19.3698 18.0087 19.3804L17.8281 20.5945C17.8609 20.6048 18.2117 20.7653 19.3478 20.7653Z" fill="white"/>
<path id="path4139" d="M46.2677 14.0842L45.9756 15.9434C45.9756 15.9434 45.4658 15.2212 44.6678 15.2212C43.4269 15.2212 42.3926 16.7557 42.3926 18.5188C42.3926 19.657 42.9443 20.7721 44.072 20.7721C44.8833 20.7721 45.333 20.192 45.333 20.192L45.2734 20.6875H46.5907L47.6253 14.082L46.2677 14.0842ZM45.6388 17.7092C45.6388 18.4429 45.2846 19.4229 44.5504 19.4229C44.063 19.4229 43.8346 19.0032 43.8346 18.3447C43.8346 17.2678 44.3062 16.5572 44.9012 16.5572C45.3887 16.5571 45.6388 16.9006 45.6388 17.7092Z" fill="white"/>
<path id="path4133" d="M8.88781 20.6944L9.71224 15.7075L9.83326 20.6944H10.7664L12.507 15.7075L11.7359 20.6944H13.1224L14.1902 14.0801H12.0462L10.711 18.1383L10.6415 14.0801H8.66515L7.58203 20.6944H8.88781Z" fill="white"/>
<path id="path4131" d="M29.754 20.7033C30.1482 18.4041 30.2213 16.5371 31.162 16.8789C31.3267 15.989 31.4856 15.6447 31.6653 15.2681C31.6653 15.2681 31.5811 15.25 31.4042 15.25C30.7977 15.25 30.3484 16.0998 30.3484 16.0998L30.4691 15.3193H29.2081L28.3633 20.7033H29.754Z" fill="white"/>
<g id="use8523">
<path id="path4149_1_" d="M38.175 15.1855C37.2464 15.1855 36.5345 15.4917 36.5345 15.4917L36.3381 16.6882C36.3381 16.6882 36.9256 16.4434 37.8138 16.4434C38.3181 16.4434 38.6868 16.5015 38.6868 16.9219C38.6868 17.1772 38.6419 17.2714 38.6419 17.2714C38.6419 17.2714 38.2441 17.2373 38.0597 17.2373C36.8886 17.2373 35.6582 17.75 35.6582 19.2956C35.6582 20.5136 36.4653 20.793 36.9656 20.793C37.9211 20.793 38.3329 20.1571 38.3547 20.1552L38.3104 20.686C38.3104 20.686 39.5025 20.686 39.5029 20.686L40.0348 16.8606C40.0349 15.2378 38.6545 15.1855 38.175 15.1855ZM38.4656 18.3002C38.4914 18.5338 38.3226 19.6291 37.5069 19.6291C37.0863 19.6291 36.9772 19.2996 36.9772 19.1047C36.9772 18.7245 37.1786 18.2681 38.1708 18.2681C38.4017 18.2684 38.4262 18.2937 38.4656 18.3002Z" fill="white"/>
</g>
<g id="use8525">
<path id="path4131_1_" d="M41.123 20.7033C41.5174 18.4041 41.5905 16.5371 42.5309 16.8789C42.6958 15.989 42.8549 15.6447 43.0345 15.2681C43.0345 15.2681 42.9502 15.25 42.7733 15.25C42.1668 15.25 41.7175 16.0998 41.7175 16.0998L41.8382 15.3193H40.5772L39.7324 20.7033H41.123Z" fill="white"/>
</g>
<path id="text9407" d="M47.5964 19.8721C47.6652 19.8721 47.7329 19.8902 47.7983 19.927C47.8642 19.9626 47.9154 20.015 47.9522 20.0829C47.9891 20.1503 48.0071 20.2206 48.0071 20.294C48.0071 20.3666 47.9891 20.4367 47.9527 20.5037C47.9167 20.5707 47.866 20.6233 47.8007 20.6602C47.7355 20.697 47.6672 20.7156 47.5963 20.7156C47.5248 20.7156 47.4565 20.697 47.3911 20.6602C47.326 20.623 47.2754 20.5707 47.2393 20.5037C47.2025 20.4367 47.1846 20.3666 47.1846 20.294C47.1846 20.2206 47.2028 20.1503 47.2397 20.0829C47.2767 20.015 47.3281 19.9629 47.3937 19.927C47.4599 19.8902 47.5277 19.8721 47.5964 19.8721ZM47.5964 19.9416C47.5389 19.9416 47.4826 19.9569 47.4276 19.9877C47.3728 20.0177 47.3301 20.0611 47.2993 20.118C47.2686 20.1741 47.253 20.2328 47.253 20.2938C47.253 20.3547 47.268 20.413 47.298 20.4687C47.3286 20.5242 47.371 20.5678 47.4259 20.5991C47.4802 20.6297 47.5369 20.6452 47.5964 20.6452C47.6556 20.6452 47.7127 20.6297 47.767 20.5991C47.8212 20.5678 47.8637 20.5242 47.8939 20.4687C47.9242 20.4126 47.939 20.3547 47.939 20.2938C47.939 20.2328 47.9236 20.1741 47.8929 20.118C47.8623 20.0611 47.8197 20.0177 47.7645 19.9877C47.71 19.957 47.6541 19.9416 47.5964 19.9416ZM47.4163 20.527V20.073H47.5686C47.6204 20.073 47.6583 20.0773 47.6813 20.086C47.7045 20.0941 47.7228 20.1087 47.737 20.1297C47.7509 20.1506 47.7579 20.1726 47.7579 20.1961C47.7579 20.2293 47.7462 20.2583 47.7229 20.2827C47.7002 20.3072 47.6696 20.3213 47.6315 20.3239C47.6467 20.3307 47.6593 20.3388 47.6691 20.3479C47.6867 20.3659 47.7085 20.3959 47.7344 20.4379L47.7885 20.5268H47.7011L47.6622 20.4554C47.6312 20.399 47.6063 20.364 47.5874 20.3497C47.5743 20.3393 47.5552 20.3341 47.5301 20.3341H47.4883V20.5271L47.4163 20.527ZM47.4878 20.2715H47.5745C47.616 20.2715 47.6439 20.2652 47.6589 20.2525C47.674 20.2402 47.6818 20.2232 47.6818 20.2022C47.6818 20.1888 47.6783 20.1767 47.6711 20.1665C47.6638 20.1556 47.6536 20.1478 47.6405 20.1424C47.6274 20.1372 47.604 20.1346 47.569 20.1346H47.4879V20.2715" fill="white"/>
</g>
</g>
</g>
</g>
</svg>
