<svg width="32" height="32" viewBox="0 0 32 32" fill="none" xmlns="http://www.w3.org/2000/svg">
<g clip-path="url(#clip0_1015_28626)">
<rect width="32" height="32" rx="4" fill="#0055A3" fill-opacity="0.05"/>
<path d="M14.6946 5.77734C15.0933 5.91135 15.4547 6.13747 15.7496 6.43734C17.5646 8.01234 19.3829 9.58484 21.2046 11.1548C21.6321 11.5248 22.0646 11.8873 22.4846 12.2648C22.6619 12.4045 22.8079 12.5799 22.9133 12.7795C23.0186 12.9791 23.081 13.1986 23.0963 13.4238C23.1116 13.649 23.0796 13.8749 23.0022 14.0869C22.9248 14.299 22.8039 14.4924 22.6471 14.6548C22.2046 15.1748 21.7546 15.6898 21.3071 16.2098C21.1695 16.3728 21.0009 16.5069 20.8113 16.6045C20.6216 16.702 20.4145 16.7611 20.2018 16.7783C19.9892 16.7955 19.7753 16.7705 19.5724 16.7047C19.3695 16.6388 19.1817 16.5336 19.0196 16.3948C17.6371 15.2098 16.2696 14.0148 14.8871 12.8248C13.9521 12.0182 13.0163 11.2107 12.0796 10.4023C11.7255 10.1488 11.4715 9.77894 11.3621 9.35734C11.3053 9.1302 11.3014 8.89302 11.3508 8.66414C11.4002 8.43526 11.5016 8.2208 11.6471 8.03734C12.1471 7.42234 12.6821 6.82734 13.2096 6.22734C13.4292 6.00321 13.7086 5.84699 14.0146 5.77734H14.6946Z" fill="#023B70"/>
<path d="M25.9984 18.5595C25.9995 19.0301 25.8278 19.4847 25.5159 19.837C25.1184 20.3095 24.7159 20.7795 24.3034 21.2395C24.0166 21.5623 23.6347 21.7856 23.2128 21.8773C22.7909 21.969 22.3507 21.9242 21.9559 21.7495L17.9984 20.1595C16.7959 19.6745 15.5934 19.192 14.3934 18.6995C14.3238 18.6571 14.2401 18.6441 14.1609 18.6633C14.0817 18.6825 14.0133 18.7324 13.9709 18.802C13.6584 19.1895 13.3184 19.552 13.0009 19.9395C12.8884 20.072 12.8084 20.1045 12.6659 19.9745C12.2759 19.622 11.8759 19.282 11.4759 18.942C11.3784 18.857 11.3734 18.7945 11.4584 18.692C11.8659 18.227 12.2584 17.747 12.6759 17.2945C12.9535 16.9893 13.3188 16.7774 13.7216 16.6878C14.1244 16.5983 14.5451 16.6356 14.9259 16.7945C17.4059 17.7945 19.8809 18.7945 22.3584 19.7945C22.8884 20.007 22.7184 20.0445 23.1084 19.6145C23.3759 19.317 23.6334 19.0145 23.8934 18.7095C24.0659 18.5095 24.0634 18.497 23.8709 18.3295C23.2284 17.772 22.5859 17.212 21.9409 16.6595C21.8359 16.572 21.8209 16.507 21.9134 16.4095C22.2659 16.0095 22.6159 15.607 22.9584 15.202C23.0584 15.082 23.1284 15.0795 23.2484 15.182C23.9184 15.7695 24.5934 16.347 25.2659 16.932C25.5041 17.1295 25.6939 17.3788 25.8208 17.6609C25.9478 17.943 26.0085 18.2504 25.9984 18.5595Z" fill="#023B70"/>
<path d="M7.84057 26.2226C7.49225 26.2286 7.14994 26.1314 6.85676 25.9432C6.56359 25.755 6.33266 25.4843 6.19307 25.1651C6.03183 24.8544 5.96937 24.5019 6.01405 24.1547C6.05873 23.8075 6.20842 23.4823 6.44307 23.2226C7.42557 22.0526 8.44307 20.9051 9.44307 19.7476C9.64057 19.5176 9.84307 19.2876 10.0406 19.0551C10.2381 18.8226 10.4106 18.7851 10.6656 19.0026C11.3839 19.6142 12.0989 20.2301 12.8106 20.8501C12.8587 20.8815 12.8989 20.9237 12.9277 20.9734C12.9566 21.0231 12.9734 21.0789 12.9768 21.1363C12.9803 21.1936 12.9701 21.251 12.9473 21.3038C12.9245 21.3565 12.8897 21.4032 12.8456 21.4401L9.84557 24.9101C9.63807 25.1601 9.43057 25.3951 9.21557 25.6276C9.04472 25.8224 8.83275 25.9768 8.59496 26.0797C8.35718 26.1826 8.09951 26.2314 7.84057 26.2226Z" fill="#023B70"/>
</g>
<defs>
<clipPath id="clip0_1015_28626">
<rect width="32" height="32" rx="4" fill="white"/>
</clipPath>
</defs>
</svg>
