<svg width="16" height="16" viewBox="0 0 16 16" fill="none" xmlns="http://www.w3.org/2000/svg">
<path fill-rule="evenodd" clip-rule="evenodd" d="M1.99486 3.24771C2.20574 2.89854 3.36763 1.62853 4.19678 1.66687C4.44463 1.6874 4.66373 1.83734 4.84175 2.01124C5.2505 2.41039 6.42061 3.92003 6.48703 4.2377C6.64861 5.01682 5.72019 5.46595 6.00433 6.25123C6.72872 8.02377 7.97688 9.27188 9.7502 9.99555C10.5348 10.2797 10.984 9.3513 11.7632 9.51356C12.0802 9.57997 13.5906 10.75 13.9897 11.1588C14.1629 11.3361 14.3136 11.5558 14.3341 11.8037C14.3649 12.6766 13.0161 13.8549 12.7532 14.0055C12.1329 14.4491 11.3236 14.4416 10.337 13.9829C7.58388 12.8375 3.18414 8.52083 2.01745 5.66381C1.57104 4.68272 1.54023 3.86799 1.99486 3.24771Z" stroke="#0E0E0E" stroke-width="1.5" stroke-linecap="round" stroke-linejoin="round"/>
</svg>
