<svg width="32" height="32" viewBox="0 0 32 32" fill="none" xmlns="http://www.w3.org/2000/svg">
<g clip-path="url(#clip0_1015_28634)">
<rect width="32" height="32" rx="4" fill="#0055A3" fill-opacity="0.05"/>
<path d="M6.0157 6H14.2507C14.2507 6.085 14.2657 6.1675 14.2657 6.25V25.6875C14.2657 25.9975 14.2657 25.9975 13.9582 25.9975H6.3082C6.26323 25.995 6.21816 25.995 6.1732 25.9975C6.0457 25.9975 5.9932 25.9475 6.0007 25.8225C6.0007 25.7725 6.0007 25.72 6.0007 25.6675V6.2725C6.0007 6.1825 6.0007 6.09 6.0157 6Z" fill="#023B70"/>
<path d="M23.6559 6C23.6559 6.07 23.6709 6.1425 23.6709 6.2125C23.6709 7.4625 23.6709 8.7125 23.6709 9.9625C23.6766 9.99805 23.675 10.0344 23.6662 10.0693C23.6575 10.1042 23.6418 10.137 23.6201 10.1657C23.5984 10.1944 23.5711 10.2185 23.5399 10.2364C23.5087 10.2543 23.4742 10.2657 23.4384 10.27C22.5684 10.535 21.7284 10.8825 20.8734 11.195C19.1734 11.82 17.4734 12.445 15.7734 13.08C15.7134 13.1025 15.6509 13.1225 15.5909 13.1475C15.4434 13.2125 15.3984 13.1475 15.3984 13.005C15.3984 12.255 15.3984 11.4825 15.3984 10.7225V6.2725C15.3984 6.18 15.3984 6.09 15.4134 6H23.6559Z" fill="#023B70"/>
<path d="M25.9996 13.0252C25.5646 13.2327 25.1046 13.3727 24.6546 13.5402C22.5513 14.3202 20.4421 15.0968 18.3271 15.8702C18.0771 15.9627 18.0771 15.9627 17.9821 15.7127L17.4821 14.3402C17.4355 14.1912 17.3646 14.0509 17.2721 13.9252C17.1771 13.8027 17.1996 13.7377 17.3446 13.6752C17.5946 13.5927 17.8196 13.5002 18.0571 13.4252L23.4496 11.4252C23.6835 11.3234 23.9363 11.2728 24.1913 11.2766C24.4462 11.2803 24.6974 11.3385 24.9282 11.4471C25.1589 11.5557 25.3637 11.7123 25.5291 11.9064C25.6945 12.1005 25.8165 12.3276 25.8871 12.5727C25.9246 12.6827 25.9671 12.7927 26.0071 12.9027L25.9996 13.0252Z" fill="#023B70"/>
<path d="M23.6744 20.5721V25.7046C23.6744 25.9971 23.6744 25.9996 23.3894 25.9996H15.6994C15.4094 25.9996 15.4094 25.9996 15.4094 25.7121C15.4094 22.0621 15.4094 18.4121 15.4094 14.7621C15.4094 14.6321 15.3294 14.4621 15.4994 14.3746C15.5912 14.324 15.6936 14.2958 15.7983 14.2924C15.903 14.2889 16.007 14.3102 16.1019 14.3546C16.1857 14.3986 16.2594 14.4595 16.3184 14.5335C16.3774 14.6076 16.4203 14.693 16.4444 14.7846C16.7261 15.5596 17.0103 16.3346 17.2969 17.1096C17.4069 17.4046 17.4044 17.4046 17.7069 17.2921L23.3469 15.2196C23.6719 15.1021 23.6719 15.1021 23.6719 15.4396L23.6744 20.5721Z" fill="#023B70"/>
</g>
<defs>
<clipPath id="clip0_1015_28634">
<rect width="32" height="32" rx="4" fill="white"/>
</clipPath>
</defs>
</svg>
