<svg width="32" height="32" viewBox="0 0 32 32" fill="none" xmlns="http://www.w3.org/2000/svg">
<g clip-path="url(#clip0_1015_28630)">
<rect width="32" height="32" rx="4" fill="#0055A3" fill-opacity="0.05"/>
<path d="M16.6908 4.75C17.455 4.84129 18.1971 5.06639 18.8833 5.415C20.9033 6.4925 22.0783 8.165 22.3708 10.4425C22.4312 11.1717 22.4429 11.9042 22.4058 12.635C22.3973 12.8096 22.3205 12.9739 22.1918 13.0923C22.0631 13.2107 21.893 13.2736 21.7183 13.2675C21.2183 13.285 20.7358 13.2875 20.2458 13.2675C20.1513 13.2658 20.0581 13.2447 19.9721 13.2054C19.8861 13.1661 19.8092 13.1095 19.7461 13.0391C19.683 12.9687 19.635 12.886 19.6053 12.7963C19.5756 12.7066 19.5647 12.6116 19.5733 12.5175C19.5733 11.94 19.6008 11.3625 19.5408 10.785C19.4565 9.89938 19.0444 9.07719 18.3853 8.47971C17.7262 7.88222 16.8676 7.55256 15.978 7.55538C15.0884 7.55819 14.2319 7.89329 13.5766 8.49494C12.9213 9.09658 12.5144 9.92136 12.4358 10.8075C12.4108 11.0775 12.4033 11.3475 12.4033 11.6175V24.095C12.4033 24.4175 12.4033 24.4175 12.7308 24.4175C13.4808 24.4175 14.2508 24.4175 15.0133 24.4175C15.2108 24.4175 15.2858 24.3625 15.2633 24.1675C15.2483 23.83 15.2633 23.4925 15.2633 23.1675C15.269 23.139 15.2687 23.1096 15.2625 23.0811C15.2562 23.0527 15.2442 23.0259 15.227 23.0024C15.2098 22.9789 15.188 22.9592 15.1628 22.9446C15.1376 22.93 15.1097 22.9207 15.0808 22.9175C14.9139 22.8864 14.7646 22.794 14.6624 22.6585C14.5601 22.5229 14.5123 22.354 14.5283 22.185C14.5513 22.009 14.6396 21.848 14.7758 21.7341C14.9119 21.6202 15.086 21.5616 15.2633 21.57C15.7083 21.57 16.1558 21.57 16.6008 21.57C16.7797 21.5582 16.9565 21.6145 17.0956 21.7276C17.2348 21.8408 17.3259 22.0024 17.3508 22.18C17.371 22.351 17.3258 22.5234 17.2242 22.6625C17.1227 22.8016 16.9723 22.8971 16.8033 22.93C16.7738 22.9322 16.7451 22.9407 16.7191 22.9549C16.6931 22.9691 16.6705 22.9887 16.6528 23.0124C16.635 23.0361 16.6225 23.0633 16.6161 23.0922C16.6098 23.1211 16.6096 23.151 16.6158 23.18C16.6158 23.525 16.6158 23.8675 16.6158 24.2125C16.6158 24.4125 16.6858 24.4625 16.8658 24.4625C17.9133 24.4625 18.9583 24.4625 20.0058 24.4625H26.8958C27.2383 24.4625 27.2383 24.4625 27.2383 24.7975C27.2383 25.5475 27.2383 26.275 27.2383 27.015C27.2383 27.2175 27.1908 27.295 26.9708 27.295C19.6258 27.295 12.2808 27.295 4.93578 27.295C4.86828 27.295 4.80328 27.295 4.73828 27.28V24.42C5.03828 24.42 5.33828 24.42 5.63828 24.42C5.80578 24.42 5.87578 24.3725 5.87078 24.195C5.87078 23.8425 5.87078 23.4925 5.87078 23.14C5.87078 22.995 5.81328 22.9375 5.68078 22.89C5.5159 22.85 5.37184 22.7499 5.27671 22.6094C5.18157 22.4689 5.14218 22.298 5.16622 22.1301C5.19026 21.9621 5.27601 21.8091 5.40673 21.701C5.53745 21.5928 5.70379 21.5372 5.87328 21.545C6.32578 21.545 6.78078 21.545 7.23328 21.545C7.40306 21.5335 7.57102 21.5858 7.70422 21.6917C7.83742 21.7976 7.92624 21.9495 7.95328 22.1175C7.98419 22.2893 7.94654 22.4665 7.8484 22.6109C7.75026 22.7553 7.59944 22.8555 7.42828 22.89C7.37152 22.8998 7.32088 22.9315 7.28722 22.9782C7.25357 23.025 7.23958 23.0831 7.24828 23.14C7.24828 23.4825 7.26078 23.8275 7.24828 24.17C7.24828 24.3575 7.31828 24.42 7.49828 24.42C8.07578 24.42 8.65328 24.42 9.23328 24.42C9.55828 24.42 9.55828 24.42 9.55828 24.0975C9.55828 19.8175 9.55828 15.5367 9.55828 11.255C9.55206 10.9778 9.56459 10.7005 9.59578 10.425C9.70806 9.38894 10.0735 8.39642 10.6599 7.53493C11.2463 6.67344 12.0356 5.96944 12.9583 5.485C13.6813 5.09666 14.4708 4.84735 15.2858 4.75H16.6908Z" fill="#023B70"/>
<path d="M17.3438 16.0552C17.3462 15.8752 17.418 15.703 17.5442 15.5744C17.6704 15.4459 17.8412 15.371 18.0212 15.3652C18.2017 15.3676 18.3743 15.4388 18.504 15.5643C18.6337 15.6897 18.7105 15.86 18.7188 16.0402C18.7153 16.2228 18.6431 16.3973 18.5166 16.5289C18.39 16.6605 18.2185 16.7396 18.0362 16.7502C17.8532 16.747 17.6785 16.6727 17.5493 16.543C17.42 16.4132 17.3463 16.2383 17.3438 16.0552Z" fill="#023B70"/>
<path d="M22.5664 16.0427C22.5697 15.8632 22.6428 15.692 22.7702 15.5655C22.8976 15.439 23.0694 15.3672 23.2489 15.3652C23.4296 15.3704 23.6014 15.4449 23.7285 15.5734C23.8556 15.7019 23.9283 15.8745 23.9314 16.0552C23.9248 16.2353 23.8512 16.4065 23.7249 16.535C23.5986 16.6636 23.4289 16.7404 23.2489 16.7502C23.0654 16.7444 22.8915 16.6672 22.764 16.5351C22.6366 16.4029 22.5657 16.2263 22.5664 16.0427Z" fill="#023B70"/>
<path d="M24.3386 21.8852C24.1636 21.8719 24.0003 21.7922 23.8822 21.6624C23.7641 21.5327 23.7 21.3626 23.7032 21.1871C23.7064 21.0117 23.7766 20.8441 23.8994 20.7187C24.0222 20.5933 24.1883 20.5196 24.3636 20.5127C24.5437 20.5244 24.713 20.603 24.8383 20.7329C24.9636 20.8628 25.0359 21.0348 25.0411 21.2152C25.031 21.3952 24.9527 21.5646 24.8223 21.689C24.6918 21.8134 24.5189 21.8836 24.3386 21.8852Z" fill="#023B70"/>
<path d="M23.1291 18.6173C23.1269 18.5274 23.1433 18.4381 23.1774 18.3549C23.2114 18.2717 23.2624 18.1965 23.327 18.134C23.3916 18.0715 23.4685 18.0231 23.5527 17.9918C23.637 17.9605 23.7269 17.9471 23.8166 17.9523C23.9493 17.9552 24.0781 17.9974 24.1868 18.0734C24.2956 18.1494 24.3794 18.2559 24.4278 18.3794C24.4761 18.503 24.4869 18.6381 24.4587 18.7677C24.4304 18.8973 24.3645 19.0157 24.2691 19.108C24.1737 19.2002 24.0532 19.2622 23.9227 19.2861C23.7922 19.31 23.6575 19.2948 23.5357 19.2423C23.4138 19.1898 23.3102 19.1025 23.2378 18.9913C23.1655 18.8801 23.1277 18.7499 23.1291 18.6173Z" fill="#023B70"/>
<path d="M16.8092 18.6245C16.8053 18.5347 16.8201 18.4451 16.8528 18.3614C16.8856 18.2777 16.9354 18.2017 16.9992 18.1384C17.063 18.0751 17.1393 18.0258 17.2233 17.9937C17.3072 17.9616 17.397 17.9474 17.4867 17.952C17.6651 17.952 17.8361 18.0229 17.9622 18.149C18.0884 18.2751 18.1592 18.4462 18.1592 18.6245C18.1592 18.8029 18.0884 18.9739 17.9622 19.1001C17.8361 19.2262 17.6651 19.297 17.4867 19.297C17.3971 19.3009 17.3077 19.2861 17.2241 19.2538C17.1405 19.2214 17.0645 19.1721 17.0009 19.1089C16.9373 19.0458 16.8874 18.9701 16.8544 18.8868C16.8214 18.8034 16.806 18.7141 16.8092 18.6245Z" fill="#023B70"/>
<path d="M20.6479 15.3626C20.7808 15.3631 20.9106 15.403 21.0208 15.4772C21.1311 15.5514 21.2169 15.6566 21.2674 15.7795C21.3179 15.9024 21.3309 16.0376 21.3047 16.1678C21.2784 16.2981 21.2142 16.4177 21.12 16.5115C21.0259 16.6053 20.9061 16.6691 20.7757 16.6949C20.6453 16.7206 20.5102 16.7072 20.3875 16.6562C20.2647 16.6052 20.1598 16.519 20.0861 16.4085C20.0123 16.2979 19.9729 16.168 19.9729 16.0351C19.9705 15.9459 19.9863 15.8572 20.0194 15.7743C20.0525 15.6915 20.1022 15.6163 20.1654 15.5533C20.2286 15.4903 20.304 15.4409 20.3869 15.4081C20.4699 15.3754 20.5587 15.3599 20.6479 15.3626Z" fill="#023B70"/>
<path d="M19.973 18.6621C19.9745 18.5293 20.0153 18.3999 20.0902 18.2903C20.1651 18.1806 20.2708 18.0956 20.3939 18.0459C20.5171 17.9962 20.6522 17.9841 20.7822 18.0111C20.9122 18.0381 21.0313 18.103 21.1245 18.1976C21.2177 18.2922 21.2809 18.4122 21.3059 18.5426C21.331 18.673 21.3169 18.808 21.2654 18.9304C21.2139 19.0528 21.1273 19.1572 21.0166 19.2304C20.9058 19.3037 20.7758 19.3426 20.643 19.3421C20.5537 19.3438 20.465 19.3274 20.3823 19.2937C20.2995 19.26 20.2245 19.2098 20.1618 19.1462C20.0991 19.0825 20.05 19.0068 20.0176 18.9236C19.9851 18.8403 19.97 18.7513 19.973 18.6621Z" fill="#023B70"/>
<path d="M19.9728 21.2924C19.9768 21.1141 20.0515 20.9446 20.1804 20.8213C20.3093 20.698 20.482 20.631 20.6603 20.6349C20.8387 20.6389 21.0082 20.7136 21.1315 20.8425C21.2548 20.9714 21.3218 21.1441 21.3178 21.3224C21.3138 21.5008 21.2392 21.6703 21.1102 21.7936C20.9813 21.9169 20.8087 21.9839 20.6303 21.9799C20.452 21.976 20.2825 21.9013 20.1592 21.7724C20.0359 21.6434 19.9688 21.4708 19.9728 21.2924Z" fill="#023B70"/>
</g>
<defs>
<clipPath id="clip0_1015_28630">
<rect width="32" height="32" rx="4" fill="white"/>
</clipPath>
</defs>
</svg>
