<svg width="32" height="32" viewBox="0 0 32 32" fill="none" xmlns="http://www.w3.org/2000/svg">
<g clip-path="url(#clip0_1015_28642)">
<rect width="32" height="32" rx="4" fill="#0055A3" fill-opacity="0.05"/>
<path d="M6 14.6651C6 11.8318 6 8.99845 6 6.16512C6 6.02512 6.03 5.99512 6.17 5.99512C9.00333 5.99512 11.8367 5.99512 14.67 5.99512C14.8526 6.05269 15.0099 6.1713 15.1155 6.33106C15.2211 6.49082 15.2686 6.68202 15.25 6.87262C15.25 9.37262 15.25 11.8668 15.25 14.3551C15.2625 14.4764 15.2479 14.5989 15.2071 14.7138C15.1663 14.8287 15.1004 14.9331 15.0142 15.0193C14.928 15.1055 14.8236 15.1714 14.7087 15.2122C14.5938 15.253 14.4713 15.2677 14.35 15.2551C11.85 15.2551 9.35583 15.2551 6.8675 15.2551C6.67724 15.2708 6.48737 15.2207 6.32952 15.1134C6.17167 15.006 6.05537 14.8478 6 14.6651Z" fill="#023B70"/>
<path d="M17.3179 6H25.4329C25.6133 6.0621 25.7674 6.18326 25.8704 6.34387C25.9734 6.50448 26.0192 6.69514 26.0004 6.885C26.0004 9.385 26.0004 11.865 26.0004 14.355C26.0089 14.4745 25.9916 14.5944 25.9498 14.7067C25.908 14.819 25.8426 14.921 25.758 15.0058C25.6734 15.0907 25.5716 15.1564 25.4594 15.1985C25.3473 15.2406 25.2274 15.2582 25.1079 15.25C22.6179 15.25 20.1279 15.25 17.6379 15.25C17.5148 15.2635 17.3903 15.2492 17.2736 15.2081C17.1569 15.167 17.0509 15.1001 16.9635 15.0125C16.8761 14.9249 16.8095 14.8187 16.7688 14.7019C16.728 14.585 16.714 14.4605 16.7279 14.3375C16.7279 11.8475 16.7279 9.3575 16.7279 6.8675C16.7122 6.67724 16.7622 6.48737 16.8696 6.32952C16.977 6.17167 17.1352 6.05537 17.3179 6Z" fill="#023B70"/>
<path d="M6 25.4329V17.3179C6.05537 17.1352 6.17167 16.977 6.32952 16.8696C6.48737 16.7622 6.67724 16.7122 6.8675 16.7279C9.3575 16.7279 11.8475 16.7279 14.3375 16.7279C14.4605 16.714 14.585 16.728 14.7019 16.7688C14.8187 16.8095 14.9249 16.8761 15.0125 16.9635C15.1001 17.0509 15.167 17.1569 15.2081 17.2736C15.2492 17.3903 15.2635 17.5148 15.25 17.6379C15.25 20.1279 15.25 22.6179 15.25 25.1079C15.2582 25.2274 15.2406 25.3473 15.1985 25.4594C15.1564 25.5716 15.0907 25.6734 15.0058 25.758C14.921 25.8426 14.819 25.908 14.7067 25.9498C14.5944 25.9916 14.4745 26.0089 14.355 26.0004C11.855 25.9854 9.375 26.0004 6.885 26.0004C6.69514 26.0192 6.50448 25.9734 6.34387 25.8704C6.18326 25.7674 6.0621 25.6133 6 25.4329Z" fill="#023B70"/>
<path d="M21.3564 26C20.1064 26 18.8564 26 17.6064 26C17.491 26.0118 17.3745 25.9984 17.2648 25.9607C17.1551 25.9231 17.0549 25.8622 16.971 25.7821C16.8871 25.702 16.8216 25.6047 16.779 25.4969C16.7363 25.3891 16.7175 25.2733 16.7239 25.1575C16.7239 25.11 16.7239 25.065 16.7239 25.02V17.75C16.7239 17.6925 16.7239 17.6325 16.7239 17.575C16.7219 17.4652 16.7419 17.3562 16.7828 17.2543C16.8238 17.1524 16.8848 17.0598 16.9622 16.9819C17.0396 16.904 17.1318 16.8425 17.2335 16.8009C17.3351 16.7594 17.4441 16.7387 17.5539 16.74C17.6264 16.74 17.6989 16.74 17.7689 16.74H24.9714C25.1012 16.7363 25.2311 16.7463 25.3589 16.77C25.5352 16.7956 25.6967 16.883 25.8145 17.0168C25.9322 17.1506 25.9985 17.3219 26.0014 17.5C26.0014 20.075 26.0014 22.6492 26.0014 25.2225C26.0014 25.3232 25.9812 25.4228 25.942 25.5154C25.9027 25.6081 25.8453 25.6919 25.7729 25.7619C25.7006 25.8319 25.615 25.8866 25.5211 25.9228C25.4272 25.959 25.327 25.9759 25.2264 25.9725C23.9314 26 22.6439 26 21.3564 26Z" fill="#023B70"/>
</g>
<defs>
<clipPath id="clip0_1015_28642">
<rect width="32" height="32" rx="4" fill="white"/>
</clipPath>
</defs>
</svg>
