<svg width="32" height="32" viewBox="0 0 32 32" fill="none" xmlns="http://www.w3.org/2000/svg">
<g clip-path="url(#clip0_1015_28628)">
<rect width="32" height="32" rx="4" fill="#0055A3" fill-opacity="0.05"/>
<path d="M21.6929 26.6245C21.2028 26.5429 20.7276 26.3887 20.2829 26.167C18.9104 25.402 18.0829 24.272 17.9454 22.667C17.9097 22.1091 17.9612 21.5491 18.0979 21.007C18.1146 20.9465 18.1144 20.8825 18.0972 20.8221C18.08 20.7617 18.0465 20.7072 18.0004 20.6645C15.7887 18.4595 13.5796 16.2504 11.3729 14.037C11.3247 13.9841 11.2624 13.9462 11.1932 13.9275C11.1241 13.9089 11.0512 13.9105 10.9829 13.932C10.0604 14.147 9.1304 14.1995 8.2329 13.842C7.48967 13.5752 6.8345 13.1084 6.33958 12.4931C5.84465 11.8777 5.52918 11.1377 5.4279 10.3545C5.34913 9.81983 5.37374 9.27497 5.5004 8.74954C5.51193 8.61905 5.56187 8.49491 5.64393 8.3928C5.72599 8.2907 5.83647 8.21521 5.96142 8.17588C6.08637 8.13654 6.22017 8.13514 6.34592 8.17183C6.47167 8.20853 6.58372 8.28168 6.6679 8.38204C7.1954 8.91204 7.7204 9.43954 8.2529 9.96454C8.42606 10.1533 8.65445 10.2825 8.90543 10.3337C9.15642 10.3849 9.41716 10.3554 9.6504 10.2495C9.82229 10.1747 9.97411 10.0604 10.0936 9.91593C10.213 9.77145 10.2967 9.60084 10.3378 9.41795C10.379 9.23506 10.3765 9.04504 10.3304 8.86331C10.2844 8.68159 10.1962 8.51328 10.0729 8.37204C9.5579 7.80704 8.9979 7.27954 8.4579 6.73454C8.31931 6.61912 8.21977 6.4637 8.1729 6.28954C8.13856 6.12655 8.16963 5.9566 8.25942 5.8163C8.3492 5.67601 8.49052 5.57661 8.6529 5.53954C9.33787 5.34527 10.0609 5.328 10.7544 5.48934C11.4479 5.65068 12.089 5.98536 12.6179 6.46204C13.1513 6.91365 13.5666 7.48839 13.8279 8.13655C14.0893 8.78471 14.1888 9.48677 14.1179 10.182C14.0864 10.4702 14.0312 10.7554 13.9529 11.0345C13.933 11.0886 13.9295 11.1473 13.9428 11.2034C13.9562 11.2594 13.9858 11.3103 14.0279 11.3495C16.2462 13.5595 18.4654 15.7762 20.6854 17.9995C20.7274 18.0449 20.7815 18.0773 20.8413 18.0928C20.9011 18.1083 20.9642 18.1063 21.0229 18.087C21.8715 17.8468 22.7711 17.8546 23.6154 18.1095C24.3605 18.3372 25.0291 18.7646 25.5483 19.3456C26.0675 19.9265 26.4175 20.6386 26.5604 21.4045C26.5804 21.497 26.6054 21.592 26.6279 21.6845V22.8045C26.5904 22.9795 26.5504 23.1545 26.5129 23.3295C26.4835 23.4911 26.3938 23.6355 26.262 23.7334C26.1302 23.8313 25.9661 23.8755 25.8029 23.857C25.6175 23.8382 25.4465 23.7486 25.3254 23.607C24.7754 23.062 24.2354 22.507 23.6754 21.9745C23.4787 21.8016 23.2311 21.6973 22.97 21.6774C22.7088 21.6575 22.4483 21.723 22.2277 21.8641C22.007 22.0052 21.8382 22.2142 21.7467 22.4595C21.6552 22.7049 21.646 22.9734 21.7204 23.2245C21.8224 23.4986 21.9949 23.7409 22.2204 23.927C22.6954 24.3995 23.1654 24.8745 23.6404 25.347C23.7411 25.4328 23.8143 25.5464 23.8507 25.6736C23.8872 25.8008 23.8854 25.9359 23.8454 26.062C23.8071 26.1854 23.7329 26.2946 23.6323 26.3757C23.5316 26.4567 23.4091 26.5059 23.2804 26.517C23.1254 26.542 22.9729 26.587 22.8179 26.622L21.6929 26.6245Z" fill="#023B70"/>
<path d="M7.46909 26.625C6.85079 26.5134 6.29487 26.1789 5.90659 25.685C5.53766 25.2162 5.34849 24.631 5.37325 24.035C5.39801 23.439 5.63506 22.8715 6.0416 22.435C6.3366 22.115 6.65159 21.815 6.95909 21.5075C8.59576 19.8725 10.2308 18.235 11.8641 16.595C12.0141 16.4475 12.0941 16.445 12.2416 16.595C13.2999 17.6666 14.3641 18.7316 15.4341 19.79C15.5766 19.93 15.5766 20.01 15.4341 20.15C13.5324 22.05 11.6324 23.9491 9.73409 25.8475C9.34258 26.242 8.84345 26.5125 8.2991 26.625H7.46909ZM12.9691 19.8025C12.9782 19.6806 12.9493 19.559 12.8866 19.4541C12.8238 19.3493 12.7302 19.2664 12.6185 19.2169C12.5068 19.1674 12.3825 19.1535 12.2627 19.1774C12.1429 19.2012 12.0333 19.2615 11.9491 19.35C10.6974 20.6 9.44743 21.85 8.19909 23.1C8.13799 23.153 8.08841 23.2181 8.05341 23.291C8.0184 23.364 7.99872 23.4434 7.99558 23.5243C7.99244 23.6052 8.0059 23.6858 8.03513 23.7613C8.06437 23.8368 8.10875 23.9054 8.16555 23.9631C8.22236 24.0208 8.29037 24.0662 8.3654 24.0965C8.44042 24.1269 8.52088 24.1415 8.60179 24.1396C8.6827 24.1377 8.76236 24.1192 8.83585 24.0853C8.90935 24.0514 8.97511 24.0028 9.02909 23.9425C10.2891 22.6908 11.5449 21.4358 12.7966 20.1775C12.8509 20.1308 12.8949 20.0734 12.9259 20.0088C12.9569 19.9443 12.9742 19.874 12.9766 19.8025H12.9691Z" fill="#023B70"/>
<path d="M26.6283 7.30285C25.9608 8.41535 25.2983 9.53285 24.6283 10.6428C24.3408 11.1178 23.9058 11.1678 23.5108 10.7803L23.4358 10.7078C23.1983 10.4728 23.2483 10.4578 23.0133 10.7078L19.2258 14.4728C19.0333 14.6678 19.0308 14.6678 18.8408 14.4728L17.4483 13.0803C17.2308 12.8628 17.2308 12.8628 17.4483 12.6528C18.7233 11.3853 19.9933 10.1178 21.2733 8.85785C21.3958 8.73285 21.4183 8.66785 21.2733 8.53535C20.8383 8.11285 20.8958 7.68285 21.4158 7.37035L24.4708 5.53785C24.8883 5.28785 25.1458 5.32035 25.4883 5.66035C25.7733 5.94285 26.0533 6.22785 26.3383 6.51035C26.4542 6.61919 26.5521 6.74577 26.6283 6.88535V7.30285Z" fill="#023B70"/>
</g>
<defs>
<clipPath id="clip0_1015_28628">
<rect width="32" height="32" rx="4" fill="white"/>
</clipPath>
</defs>
</svg>
