<svg width="20" height="20" viewBox="0 0 20 20" fill="none" xmlns="http://www.w3.org/2000/svg">
<path d="M19.6085 5.03419C19.3896 4.23876 18.7478 3.61173 17.934 3.39755C16.4472 3 10.4998 3 10.4998 3C10.4998 3 4.55265 3 3.06584 3.38247C2.26764 3.59643 1.61022 4.23887 1.39127 5.03419C1 6.48702 1 9.5 1 9.5C1 9.5 1 12.5282 1.39127 13.9658C1.61045 14.7611 2.25198 15.3882 3.06595 15.6023C4.56831 16 10.5 16 10.5 16C10.5 16 16.4472 16 17.934 15.6175C18.7479 15.4035 19.3896 14.7764 19.6088 13.9811C19.9999 12.5282 19.9999 9.5153 19.9999 9.5153C19.9999 9.5153 20.0156 6.48702 19.6085 5.03419ZM8.60628 12.2835V6.7165L13.5518 9.5L8.60628 12.2835Z" fill="black"/>
</svg>
